M48
; DRILL file {KiCad 8.0.2} date 2024-05-16T19:19:30+0930
; FORMAT={-:-/ absolute / metric / decimal}
; #@! TF.CreationDate,2024-05-16T19:19:30+09:30
; #@! TF.GenerationSoftware,Kicad,Pcbnew,8.0.2
; #@! TF.FileFunction,NonPlated,1,2,NPTH
FMAT,2
METRIC
; #@! TA.AperFunction,NonPlated,NPTH,ComponentDrill
T1C2.000
; #@! TA.AperFunction,NonPlated,NPTH,ComponentDrill
T2C2.410
; #@! TA.AperFunction,NonPlated,NPTH,ComponentDrill
T3C3.200
%
G90
G05
T1
X143.385Y-159.602
X143.385Y-207.002
X151.942Y-75.334
X153.442Y-57.234
X155.388Y-121.562
X156.888Y-103.462
X161.485Y-158.102
X161.485Y-208.502
X186.385Y-159.602
X186.385Y-207.002
X188.842Y-57.234
X190.342Y-75.334
X204.288Y-103.462
X204.485Y-158.102
X204.485Y-208.502
X205.788Y-121.562
X213.376Y-76.3
X214.876Y-58.2
X229.885Y-159.602
X229.885Y-207.002
X247.985Y-158.102
X247.985Y-208.502
X262.276Y-58.2
X263.776Y-76.3
X271.395Y-159.602
X271.395Y-207.002
X289.495Y-158.102
X289.495Y-208.502
X313.395Y-159.602
X313.395Y-207.002
X331.495Y-158.102
X331.495Y-208.502
T2
X188.214Y-45.618
X195.514Y-45.618
X198.128Y-75.215
X198.304Y-60.374
X205.428Y-75.215
X205.604Y-60.374
X209.214Y-45.618
X216.514Y-45.618
X270.907Y-60.015
X270.907Y-72.015
X278.207Y-60.015
X278.207Y-72.015
X288.907Y-60.015
X288.907Y-72.015
X288.907Y-84.015
X288.907Y-96.015
X288.907Y-108.015
X288.907Y-120.015
X288.907Y-132.015
X296.207Y-60.015
X296.207Y-72.015
X296.207Y-84.015
X296.207Y-96.015
X296.207Y-108.015
X296.207Y-120.015
X296.207Y-132.015
X303.25Y-175.08
X303.25Y-194.38
X303.554Y-145.715
X303.554Y-168.015
X308.61Y-59.741
X308.61Y-71.741
X308.61Y-83.741
X311.709Y-95.731
X311.709Y-112.031
X315.91Y-59.741
X315.91Y-71.741
X315.91Y-83.741
X326.61Y-59.741
X326.61Y-71.741
X333.91Y-59.741
X333.91Y-71.741
X334.119Y-144.506
X334.381Y-131.267
X335.549Y-104.14
X335.873Y-89.983
X341.419Y-144.506
X341.681Y-131.267
X342.849Y-104.14
X343.173Y-89.983
T3
X141.185Y-117.302
X141.185Y-220.302
X141.19Y-43.307
X241.185Y-117.302
X241.185Y-220.302
X241.19Y-43.307
X341.19Y-43.307
X341.195Y-117.302
X341.195Y-220.302
M30
