G04 #@! TF.GenerationSoftware,KiCad,Pcbnew,8.0.2*
G04 #@! TF.CreationDate,2024-05-16T19:18:51+09:30*
G04 #@! TF.ProjectId,Motherboard 2024,4d6f7468-6572-4626-9f61-726420323032,rev?*
G04 #@! TF.SameCoordinates,Original*
G04 #@! TF.FileFunction,Paste,Top*
G04 #@! TF.FilePolarity,Positive*
%FSLAX46Y46*%
G04 Gerber Fmt 4.6, Leading zero omitted, Abs format (unit mm)*
G04 Created by KiCad (PCBNEW 8.0.2) date 2024-05-16 19:18:51*
%MOMM*%
%LPD*%
G01*
G04 APERTURE LIST*
G04 Aperture macros list*
%AMRoundRect*
0 Rectangle with rounded corners*
0 $1 Rounding radius*
0 $2 $3 $4 $5 $6 $7 $8 $9 X,Y pos of 4 corners*
0 Add a 4 corners polygon primitive as box body*
4,1,4,$2,$3,$4,$5,$6,$7,$8,$9,$2,$3,0*
0 Add four circle primitives for the rounded corners*
1,1,$1+$1,$2,$3*
1,1,$1+$1,$4,$5*
1,1,$1+$1,$6,$7*
1,1,$1+$1,$8,$9*
0 Add four rect primitives between the rounded corners*
20,1,$1+$1,$2,$3,$4,$5,0*
20,1,$1+$1,$4,$5,$6,$7,0*
20,1,$1+$1,$6,$7,$8,$9,0*
20,1,$1+$1,$8,$9,$2,$3,0*%
G04 Aperture macros list end*
%ADD10R,1.270000X2.540000*%
%ADD11R,2.540000X1.270000*%
%ADD12RoundRect,0.250000X-0.450000X0.325000X-0.450000X-0.325000X0.450000X-0.325000X0.450000X0.325000X0*%
%ADD13R,1.140000X3.175000*%
G04 APERTURE END LIST*
D10*
X276057200Y-68594600D03*
X273057200Y-68594600D03*
D11*
X298549600Y-192230000D03*
X298549600Y-189230000D03*
X298549600Y-186230000D03*
X298549600Y-183230000D03*
X298549600Y-180230000D03*
X298549600Y-177230000D03*
X307949600Y-192230000D03*
X307949600Y-189230000D03*
X307949600Y-186230000D03*
X307949600Y-183230000D03*
X307949600Y-180230000D03*
X307949600Y-177230000D03*
D10*
X294057200Y-68594600D03*
X291057200Y-68594600D03*
X294057200Y-116594600D03*
X291057200Y-116594600D03*
X276057200Y-56594600D03*
X273057200Y-56594600D03*
X203277600Y-71795000D03*
X200277600Y-71795000D03*
D12*
X321005200Y-48242000D03*
X321005200Y-50292000D03*
D10*
X340699200Y-100720000D03*
X337699200Y-100720000D03*
D13*
X142294851Y-144904138D03*
X142294851Y-139699138D03*
X144834851Y-144904138D03*
X144834851Y-139699138D03*
X147374851Y-144904138D03*
X147374851Y-139699138D03*
X149914851Y-144904138D03*
X149914851Y-139699138D03*
X152454851Y-144904138D03*
X152454851Y-139699138D03*
X154994851Y-144904138D03*
X154994851Y-139699138D03*
X157534851Y-144904138D03*
X157534851Y-139699138D03*
X160074851Y-144904138D03*
X160074851Y-139699138D03*
X165294851Y-144904138D03*
X165294851Y-139699138D03*
X167834851Y-144904138D03*
X167834851Y-139699138D03*
X170374851Y-144904138D03*
X170374851Y-139699138D03*
X172914851Y-144904138D03*
X172914851Y-139699138D03*
X175454851Y-144904138D03*
X175454851Y-139699138D03*
X177994851Y-144904138D03*
X177994851Y-139699138D03*
X180534851Y-144904138D03*
X180534851Y-139699138D03*
X183074851Y-144904138D03*
X183074851Y-139699138D03*
D10*
X331760000Y-68320800D03*
X328760000Y-68320800D03*
X331760000Y-56320800D03*
X328760000Y-56320800D03*
X294057200Y-104594600D03*
X291057200Y-104594600D03*
D12*
X299161200Y-44085400D03*
X299161200Y-46135400D03*
D10*
X294057200Y-92594600D03*
X291057200Y-92594600D03*
D11*
X316408800Y-97881150D03*
X316408800Y-100881150D03*
X316408800Y-103881150D03*
X316408800Y-106881150D03*
X316408800Y-109881150D03*
X307008800Y-97881150D03*
X307008800Y-100881150D03*
X307008800Y-103881150D03*
X307008800Y-106881150D03*
X307008800Y-109881150D03*
D10*
X339269200Y-141086200D03*
X336269200Y-141086200D03*
X294057200Y-56594600D03*
X291057200Y-56594600D03*
X339530800Y-127847200D03*
X336530800Y-127847200D03*
D12*
X321005200Y-43009600D03*
X321005200Y-45059600D03*
D10*
X341023200Y-86563200D03*
X338023200Y-86563200D03*
X313760000Y-56320800D03*
X310760000Y-56320800D03*
D11*
X298854400Y-165864800D03*
X298854400Y-162864800D03*
X298854400Y-159864800D03*
X298854400Y-156864800D03*
X298854400Y-153864800D03*
X298854400Y-150864800D03*
X298854400Y-147864800D03*
X308254400Y-165864800D03*
X308254400Y-162864800D03*
X308254400Y-159864800D03*
X308254400Y-156864800D03*
X308254400Y-153864800D03*
X308254400Y-150864800D03*
X308254400Y-147864800D03*
D10*
X203454000Y-56954400D03*
X200454000Y-56954400D03*
X214364000Y-42198400D03*
X211364000Y-42198400D03*
X313760000Y-80320800D03*
X310760000Y-80320800D03*
X294057200Y-128594600D03*
X291057200Y-128594600D03*
X313760000Y-68320800D03*
X310760000Y-68320800D03*
X294057200Y-80594600D03*
X291057200Y-80594600D03*
X193364000Y-42198400D03*
X190364000Y-42198400D03*
D13*
X211294851Y-144904138D03*
X211294851Y-139699138D03*
X213834851Y-144904138D03*
X213834851Y-139699138D03*
X216374851Y-144904138D03*
X216374851Y-139699138D03*
X218914851Y-144904138D03*
X218914851Y-139699138D03*
X221454851Y-144904138D03*
X221454851Y-139699138D03*
X223994851Y-144904138D03*
X223994851Y-139699138D03*
X226534851Y-144904138D03*
X226534851Y-139699138D03*
X229074851Y-144904138D03*
X229074851Y-139699138D03*
X188294851Y-144904138D03*
X188294851Y-139699138D03*
X190834851Y-144904138D03*
X190834851Y-139699138D03*
X193374851Y-144904138D03*
X193374851Y-139699138D03*
X195914851Y-144904138D03*
X195914851Y-139699138D03*
X198454851Y-144904138D03*
X198454851Y-139699138D03*
X200994851Y-144904138D03*
X200994851Y-139699138D03*
X203534851Y-144904138D03*
X203534851Y-139699138D03*
X206074851Y-144904138D03*
X206074851Y-139699138D03*
D12*
X298958000Y-49571800D03*
X298958000Y-51621800D03*
M02*
