M48
; DRILL file {KiCad 8.0.2} date 2024-05-16T19:19:30+0930
; FORMAT={-:-/ absolute / metric / decimal}
; #@! TF.CreationDate,2024-05-16T19:19:30+09:30
; #@! TF.GenerationSoftware,Kicad,Pcbnew,8.0.2
; #@! TF.FileFunction,Plated,1,2,PTH
FMAT,2
METRIC
; #@! TA.AperFunction,Plated,PTH,ViaDrill
T1C0.400
; #@! TA.AperFunction,Plated,PTH,ViaDrill
T2C0.750
; #@! TA.AperFunction,Plated,PTH,ComponentDrill
T3C1.000
; #@! TA.AperFunction,Plated,PTH,ComponentDrill
T4C1.750
%
G90
G05
T1
X136.657Y-168.91
X137.656Y-176.924
X138.176Y-52.493
X138.176Y-53.492
X140.411Y-125.476
X140.576Y-124.357
X140.974Y-126.598
X141.63Y-127.356
X145.694Y-54.492
X147.335Y-153.558
X148.184Y-137.363
X148.793Y-152.654
X150.114Y-128.355
X151.943Y-79.502
X152.705Y-136.754
X154.534Y-153.653
X154.889Y-137.211
X162.842Y-211.937
X163.13Y-137.869
X163.576Y-136.906
X163.75Y-135.922
X163.83Y-211.785
X164.537Y-211.078
X165.659Y-129.794
X166.472Y-146.914
X166.878Y-54.915
X169.079Y-146.05
X170.078Y-152.248
X170.383Y-129.355
X170.552Y-52.493
X171.704Y-146.152
X172.923Y-129.755
X174.244Y-145.871
X174.295Y-155.053
X175.616Y-130.155
X176.632Y-145.471
X177.8Y-130.155
X178.968Y-53.797
X180.188Y-130.155
X182.88Y-123.956
X183.286Y-152.248
X183.337Y-130.155
X184.861Y-211.041
X187.655Y-125.357
X188.09Y-123.964
X188.174Y-155.196
X189.253Y-189.738
X189.433Y-204.622
X189.84Y-128.355
X190.335Y-154.274
X190.652Y-182.118
X190.957Y-98.755
X191.008Y-152.654
X191.618Y-124.957
X191.872Y-147.218
X192.278Y-144.12
X193.751Y-132.155
X194.666Y-144.323
X195.326Y-203.923
X197.206Y-144.069
X198.526Y-131.216
X199.746Y-144.932
X201.27Y-129.692
X201.371Y-203.523
X203.657Y-203.123
X203.86Y-128.755
X204.267Y-147.523
X204.88Y-202.723
X204.978Y-145.378
X205.3Y-201.816
X206.145Y-132.384
X209.55Y-125.357
X210.82Y-153.162
X213.817Y-128.422
X214.122Y-153.162
X216.002Y-211.023
X218.491Y-80.501
X219.448Y-63.84
X219.862Y-62.84
X219.885Y-110.287
X220.777Y-97.13
X221.793Y-153.162
X222.148Y-129.032
X222.809Y-126.356
X223.266Y-154.127
X225.654Y-127.61
X227.127Y-48.158
X231.14Y-125.905
X232.105Y-98.083
X232.461Y-153.127
X233.629Y-79.045
X235.153Y-147.777
X236.931Y-163.22
X244.043Y-97.18
X244.602Y-128.473
X244.685Y-163.982
X245.385Y-130.048
X245.385Y-153.264
X245.821Y-79.908
X247.535Y-178.452
X256.286Y-130.861
X256.399Y-182.829
X257.048Y-152.552
X257.099Y-196.952
X257.798Y-154.635
X257.798Y-181.0
X258.775Y-127.559
X259.029Y-180.302
X259.305Y-126.109
X267.818Y-97.981
X268.376Y-204.368
X268.63Y-189.484
X269.025Y-87.122
X269.025Y-186.957
X274.32Y-67.92
X274.777Y-97.282
X275.793Y-137.566
X275.793Y-180.302
X276.403Y-203.098
X277.876Y-68.58
X281.889Y-134.378
X282.894Y-157.035
X283.82Y-161.814
X284.429Y-201.654
X285.191Y-203.454
X287.907Y-138.315
X288.087Y-160.68
X288.29Y-202.743
X288.834Y-137.915
X289.001Y-67.88
X289.345Y-201.473
X289.834Y-137.702
X290.671Y-178.054
X290.728Y-137.115
X291.057Y-123.309
X291.07Y-179.527
X291.47Y-183.439
X291.87Y-190.5
X292.015Y-136.715
X292.049Y-156.635
X292.182Y-197.521
X292.303Y-105.207
X293.014Y-136.315
X293.065Y-197.053
X293.37Y-192.176
X294.057Y-123.241
X294.07Y-158.496
X294.07Y-159.766
X294.07Y-163.881
X294.07Y-180.451
X294.469Y-175.463
X294.64Y-161.696
X295.402Y-68.326
X295.504Y-104.343
X295.656Y-128.778
X296.381Y-211.041
X296.723Y-162.814
X297.36Y-211.441
X298.094Y-212.141
X299.669Y-212.649
X300.685Y-180.451
X300.888Y-182.88
X301.092Y-148.082
X301.244Y-160.02
X301.447Y-158.242
X301.695Y-162.763
X302.666Y-61.62
X303.835Y-62.75
X305.156Y-120.853
X305.206Y-64.008
X305.511Y-159.969
X305.58Y-129.134
X305.664Y-123.709
X307.137Y-111.608
X307.696Y-124.104
X307.899Y-210.058
X309.321Y-111.608
X310.185Y-135.433
X310.76Y-77.216
X311.506Y-155.854
X311.861Y-54.407
X312.217Y-188.874
X312.572Y-184.963
X312.776Y-120.396
X312.776Y-147.969
X314.096Y-104.14
X314.096Y-109.931
X314.252Y-105.127
X315.062Y-56.286
X319.38Y-45.771
X319.452Y-133.316
X319.481Y-211.633
X320.294Y-134.772
X321.005Y-55.982
X321.194Y-167.081
X322.224Y-179.07
X322.275Y-160.477
X325.628Y-141.224
X327.609Y-54.661
X329.641Y-135.687
X330.444Y-146.57
X330.505Y-56.032
X331.876Y-147.015
X332.943Y-125.109
X334.327Y-139.548
X334.823Y-86.563
X335.636Y-125.109
X337.363Y-143.459
X343.052Y-138.887
X346.151Y-126.441
T2
X152.349Y-147.879
X152.4Y-149.504
X154.788Y-147.879
X154.838Y-149.758
X158.648Y-93.37
X158.699Y-91.084
X160.934Y-93.421
X160.985Y-91.084
X187.858Y-50.038
X191.668Y-50.089
X198.984Y-93.167
X199.034Y-90.881
X199.238Y-46.685
X201.27Y-93.218
X201.32Y-90.881
X314.503Y-177.19
X314.655Y-175.209
X314.96Y-152.451
X315.112Y-150.47
X316.992Y-177.495
X317.094Y-175.209
X317.449Y-152.756
X317.551Y-150.47
T3
X291.038Y-48.26
X291.079Y-42.164
X293.578Y-48.26
X293.619Y-42.164
X311.399Y-42.418
X311.404Y-49.276
X313.939Y-42.418
X313.944Y-49.276
T4
X150.185Y-169.302
X150.185Y-173.302
X150.185Y-177.302
X150.185Y-181.302
X150.185Y-185.302
X150.185Y-189.302
X150.185Y-193.302
X150.185Y-197.302
X154.185Y-171.302
X154.185Y-175.302
X154.185Y-179.302
X154.185Y-183.302
X154.185Y-187.302
X154.185Y-191.302
X154.185Y-195.302
X158.185Y-169.302
X158.185Y-173.302
X158.185Y-177.302
X158.185Y-181.302
X158.185Y-185.302
X158.185Y-189.302
X158.185Y-193.302
X158.185Y-197.302
X163.142Y-64.034
X163.142Y-72.034
X165.142Y-68.034
X166.588Y-110.262
X166.588Y-118.262
X167.142Y-64.034
X167.142Y-72.034
X168.588Y-114.262
X169.142Y-68.034
X170.588Y-110.262
X170.588Y-118.262
X171.142Y-64.034
X171.142Y-72.034
X172.588Y-114.262
X173.142Y-68.034
X174.588Y-110.262
X174.588Y-118.262
X175.142Y-64.034
X175.142Y-72.034
X176.588Y-114.262
X177.142Y-68.034
X178.588Y-110.262
X178.588Y-118.262
X179.142Y-64.034
X179.142Y-72.034
X180.588Y-114.262
X182.588Y-110.262
X182.588Y-118.262
X184.588Y-114.262
X186.588Y-110.262
X186.588Y-118.262
X188.588Y-114.262
X190.588Y-110.262
X190.588Y-118.262
X192.588Y-114.262
X193.185Y-169.302
X193.185Y-173.302
X193.185Y-177.302
X193.185Y-181.302
X193.185Y-185.302
X193.185Y-189.302
X193.185Y-193.302
X193.185Y-197.302
X194.588Y-110.262
X194.588Y-118.262
X197.185Y-171.302
X197.185Y-175.302
X197.185Y-179.302
X197.185Y-183.302
X197.185Y-187.302
X197.185Y-191.302
X197.185Y-195.302
X201.185Y-169.302
X201.185Y-173.302
X201.185Y-177.302
X201.185Y-181.302
X201.185Y-185.302
X201.185Y-189.302
X201.185Y-193.302
X201.185Y-197.302
X224.576Y-65.0
X224.576Y-73.0
X226.576Y-69.0
X228.576Y-65.0
X228.576Y-73.0
X230.576Y-69.0
X232.576Y-65.0
X232.576Y-73.0
X234.576Y-69.0
X236.576Y-65.0
X236.576Y-73.0
X236.685Y-169.302
X236.685Y-173.302
X236.685Y-177.302
X236.685Y-181.302
X236.685Y-185.302
X236.685Y-189.302
X236.685Y-193.302
X236.685Y-197.302
X238.576Y-69.0
X240.576Y-65.0
X240.576Y-73.0
X240.685Y-171.302
X240.685Y-175.302
X240.685Y-179.302
X240.685Y-183.302
X240.685Y-187.302
X240.685Y-191.302
X240.685Y-195.302
X242.576Y-69.0
X244.576Y-65.0
X244.576Y-73.0
X244.685Y-169.302
X244.685Y-173.302
X244.685Y-177.302
X244.685Y-181.302
X244.685Y-185.302
X244.685Y-189.302
X244.685Y-193.302
X244.685Y-197.302
X246.576Y-69.0
X248.576Y-65.0
X248.576Y-73.0
X250.576Y-69.0
X252.576Y-65.0
X252.576Y-73.0
X278.195Y-169.302
X278.195Y-173.302
X278.195Y-177.302
X278.195Y-181.302
X278.195Y-185.302
X278.195Y-189.302
X278.195Y-193.302
X278.195Y-197.302
X282.195Y-171.302
X282.195Y-175.302
X282.195Y-179.302
X282.195Y-183.302
X282.195Y-187.302
X282.195Y-191.302
X282.195Y-195.302
X286.195Y-169.302
X286.195Y-173.302
X286.195Y-177.302
X286.195Y-181.302
X286.195Y-185.302
X286.195Y-189.302
X286.195Y-193.302
X286.195Y-197.302
X320.195Y-169.302
X320.195Y-173.302
X320.195Y-177.302
X320.195Y-181.302
X320.195Y-185.302
X320.195Y-189.302
X320.195Y-193.302
X320.195Y-197.302
X324.195Y-171.302
X324.195Y-175.302
X324.195Y-179.302
X324.195Y-183.302
X324.195Y-187.302
X324.195Y-191.302
X324.195Y-195.302
X328.195Y-169.302
X328.195Y-173.302
X328.195Y-177.302
X328.195Y-181.302
X328.195Y-185.302
X328.195Y-189.302
X328.195Y-193.302
X328.195Y-197.302
M30
