%TF.GenerationSoftware,KiCad,Pcbnew,8.0.2*%
%TF.CreationDate,2024-05-16T19:19:42+09:30*%
%TF.ProjectId,Motherboard 2024,4d6f7468-6572-4626-9f61-726420323032,rev?*%
%TF.SameCoordinates,Original*%
%TF.FileFunction,Drillmap*%
%TF.FilePolarity,Positive*%
%FSLAX45Y45*%
G04 Gerber Fmt 4.5, Leading zero omitted, Abs format (unit mm)*
G04 Created by KiCad (PCBNEW 8.0.2) date 2024-05-16 19:19:42*
%MOMM*%
%LPD*%
G01*
G04 APERTURE LIST*
%ADD10C,0.100000*%
%ADD11C,0.200000*%
%ADD12C,0.175000*%
G04 APERTURE END LIST*
D10*
X13518985Y-4330664D02*
X13518985Y-22030664D01*
X34118985Y-22629664D02*
X14118985Y-22629664D01*
X34118985Y-3730664D02*
G75*
G02*
X34718986Y-4330664I5J-599996D01*
G01*
X34118985Y-3730664D02*
X14118985Y-3730664D01*
X13518985Y-4330664D02*
G75*
G02*
X14118985Y-3730664I600000J0D01*
G01*
X34718985Y-22030664D02*
G75*
G02*
X34118985Y-22629665I-599515J514D01*
G01*
X14118985Y-22629664D02*
G75*
G02*
X13518986Y-22030664I-495J599504D01*
G01*
X34718985Y-4330664D02*
X34718985Y-22030664D01*
D11*
D10*
X13645660Y-16871000D02*
X13685660Y-16911000D01*
X13685660Y-16871000D02*
X13645660Y-16911000D01*
X13745610Y-17672397D02*
X13785610Y-17712397D01*
X13785610Y-17672397D02*
X13745610Y-17712397D01*
X13797600Y-5229290D02*
X13837600Y-5269290D01*
X13837600Y-5229290D02*
X13797600Y-5269290D01*
X13797600Y-5329240D02*
X13837600Y-5369240D01*
X13837600Y-5329240D02*
X13797600Y-5369240D01*
X14021120Y-12527600D02*
X14061120Y-12567600D01*
X14061120Y-12527600D02*
X14021120Y-12567600D01*
X14037552Y-12415660D02*
X14077552Y-12455660D01*
X14077552Y-12415660D02*
X14037552Y-12455660D01*
X14077409Y-12639769D02*
X14117409Y-12679769D01*
X14117409Y-12639769D02*
X14077409Y-12679769D01*
X14143040Y-12715560D02*
X14183040Y-12755560D01*
X14183040Y-12715560D02*
X14143040Y-12755560D01*
X14549440Y-5429190D02*
X14589440Y-5469190D01*
X14589440Y-5429190D02*
X14549440Y-5469190D01*
X14713535Y-15335819D02*
X14753535Y-15375819D01*
X14753535Y-15335819D02*
X14713535Y-15375819D01*
X14798360Y-13716320D02*
X14838360Y-13756320D01*
X14838360Y-13716320D02*
X14798360Y-13756320D01*
X14859320Y-15245400D02*
X14899320Y-15285400D01*
X14899320Y-15245400D02*
X14859320Y-15285400D01*
X14991400Y-12815510D02*
X15031400Y-12855510D01*
X15031400Y-12815510D02*
X14991400Y-12855510D01*
X15174280Y-7930200D02*
X15214280Y-7970200D01*
X15214280Y-7930200D02*
X15174280Y-7970200D01*
X15250480Y-13655360D02*
X15290480Y-13695360D01*
X15290480Y-13655360D02*
X15250480Y-13695360D01*
X15433360Y-15345350D02*
X15473360Y-15385350D01*
X15473360Y-15345350D02*
X15433360Y-15385350D01*
X15468920Y-13701080D02*
X15508920Y-13741080D01*
X15508920Y-13701080D02*
X15468920Y-13741080D01*
X16264212Y-21173718D02*
X16304212Y-21213718D01*
X16304212Y-21173718D02*
X16264212Y-21213718D01*
X16293050Y-13766904D02*
X16333050Y-13806904D01*
X16333050Y-13766904D02*
X16293050Y-13806904D01*
X16337600Y-13670600D02*
X16377600Y-13710600D01*
X16377600Y-13670600D02*
X16337600Y-13710600D01*
X16354970Y-13572171D02*
X16394970Y-13612171D01*
X16394970Y-13572171D02*
X16354970Y-13612171D01*
X16363000Y-21158520D02*
X16403000Y-21198520D01*
X16403000Y-21158520D02*
X16363000Y-21198520D01*
X16433675Y-21087845D02*
X16473675Y-21127845D01*
X16473675Y-21087845D02*
X16433675Y-21127845D01*
X16545880Y-12959400D02*
X16585880Y-12999400D01*
X16585880Y-12959400D02*
X16545880Y-12999400D01*
X16627160Y-14671360D02*
X16667160Y-14711360D01*
X16667160Y-14671360D02*
X16627160Y-14711360D01*
X16667800Y-5471480D02*
X16707800Y-5511480D01*
X16707800Y-5471480D02*
X16667800Y-5511480D01*
X16887890Y-14585000D02*
X16927890Y-14625000D01*
X16927890Y-14585000D02*
X16887890Y-14625000D01*
X16987840Y-15204760D02*
X17027840Y-15244760D01*
X17027840Y-15204760D02*
X16987840Y-15244760D01*
X17018320Y-12915460D02*
X17058320Y-12955460D01*
X17058320Y-12915460D02*
X17018320Y-12955460D01*
X17035210Y-5229290D02*
X17075210Y-5269290D01*
X17075210Y-5229290D02*
X17035210Y-5269290D01*
X17150400Y-14595160D02*
X17190400Y-14635160D01*
X17190400Y-14595160D02*
X17150400Y-14635160D01*
X17272320Y-12955460D02*
X17312320Y-12995460D01*
X17312320Y-12955460D02*
X17272320Y-12995460D01*
X17404400Y-14567130D02*
X17444400Y-14607130D01*
X17444400Y-14567130D02*
X17404400Y-14607130D01*
X17409480Y-15485350D02*
X17449480Y-15525350D01*
X17449480Y-15485350D02*
X17409480Y-15525350D01*
X17541560Y-12995460D02*
X17581560Y-13035460D01*
X17581560Y-12995460D02*
X17541560Y-13035460D01*
X17643160Y-14527130D02*
X17683160Y-14567130D01*
X17683160Y-14527130D02*
X17643160Y-14567130D01*
X17760000Y-12995460D02*
X17800000Y-13035460D01*
X17800000Y-12995460D02*
X17760000Y-13035460D01*
X17876840Y-5359720D02*
X17916840Y-5399720D01*
X17916840Y-5359720D02*
X17876840Y-5399720D01*
X17998760Y-12995460D02*
X18038760Y-13035460D01*
X18038760Y-12995460D02*
X17998760Y-13035460D01*
X18268000Y-12375610D02*
X18308000Y-12415610D01*
X18308000Y-12375610D02*
X18268000Y-12415610D01*
X18308640Y-15204760D02*
X18348640Y-15244760D01*
X18348640Y-15204760D02*
X18308640Y-15244760D01*
X18313720Y-12995460D02*
X18353720Y-13035460D01*
X18353720Y-12995460D02*
X18313720Y-13035460D01*
X18466120Y-21084130D02*
X18506120Y-21124130D01*
X18506120Y-21084130D02*
X18466120Y-21124130D01*
X18745520Y-12515660D02*
X18785520Y-12555660D01*
X18785520Y-12515660D02*
X18745520Y-12555660D01*
X18788971Y-12376370D02*
X18828971Y-12416370D01*
X18828971Y-12376370D02*
X18788971Y-12416370D01*
X18797360Y-15499550D02*
X18837360Y-15539550D01*
X18837360Y-15499550D02*
X18797360Y-15539550D01*
X18905290Y-18953800D02*
X18945290Y-18993800D01*
X18945290Y-18953800D02*
X18905290Y-18993800D01*
X18923320Y-20442240D02*
X18963320Y-20482240D01*
X18963320Y-20442240D02*
X18923320Y-20482240D01*
X18963960Y-12815510D02*
X19003960Y-12855510D01*
X19003960Y-12815510D02*
X18963960Y-12855510D01*
X19013535Y-15407410D02*
X19053535Y-15447410D01*
X19053535Y-15407410D02*
X19013535Y-15447410D01*
X19045240Y-18191800D02*
X19085240Y-18231800D01*
X19085240Y-18191800D02*
X19045240Y-18231800D01*
X19075720Y-9855520D02*
X19115720Y-9895520D01*
X19115720Y-9855520D02*
X19075720Y-9895520D01*
X19080800Y-15245450D02*
X19120800Y-15285450D01*
X19120800Y-15245450D02*
X19080800Y-15285450D01*
X19141760Y-12475660D02*
X19181760Y-12515660D01*
X19181760Y-12475660D02*
X19141760Y-12515660D01*
X19167160Y-14701840D02*
X19207160Y-14741840D01*
X19207160Y-14701840D02*
X19167160Y-14741840D01*
X19207800Y-14391960D02*
X19247800Y-14431960D01*
X19247800Y-14391960D02*
X19207800Y-14431960D01*
X19355120Y-13195510D02*
X19395120Y-13235510D01*
X19395120Y-13195510D02*
X19355120Y-13235510D01*
X19446560Y-14412280D02*
X19486560Y-14452280D01*
X19486560Y-14412280D02*
X19446560Y-14452280D01*
X19512600Y-20372290D02*
X19552600Y-20412290D01*
X19552600Y-20372290D02*
X19512600Y-20412290D01*
X19700560Y-14386880D02*
X19740560Y-14426880D01*
X19740560Y-14386880D02*
X19700560Y-14426880D01*
X19832640Y-13101640D02*
X19872640Y-13141640D01*
X19872640Y-13101640D02*
X19832640Y-13141640D01*
X19954560Y-14473240D02*
X19994560Y-14513240D01*
X19994560Y-14473240D02*
X19954560Y-14513240D01*
X20106960Y-12949240D02*
X20146960Y-12989240D01*
X20146960Y-12949240D02*
X20106960Y-12989240D01*
X20117120Y-20332290D02*
X20157120Y-20372290D01*
X20157120Y-20332290D02*
X20117120Y-20372290D01*
X20345720Y-20292290D02*
X20385720Y-20332290D01*
X20385720Y-20292290D02*
X20345720Y-20332290D01*
X20366040Y-12855510D02*
X20406040Y-12895510D01*
X20406040Y-12855510D02*
X20366040Y-12895510D01*
X20406680Y-14732320D02*
X20446680Y-14772320D01*
X20446680Y-14732320D02*
X20406680Y-14772320D01*
X20467982Y-20252290D02*
X20507982Y-20292290D01*
X20507982Y-20252290D02*
X20467982Y-20292290D01*
X20477800Y-14517770D02*
X20517800Y-14557770D01*
X20517800Y-14517770D02*
X20477800Y-14557770D01*
X20510033Y-20161616D02*
X20550033Y-20201616D01*
X20550033Y-20161616D02*
X20510033Y-20201616D01*
X20594540Y-13218380D02*
X20634540Y-13258380D01*
X20634540Y-13218380D02*
X20594540Y-13258380D01*
X20935000Y-12515660D02*
X20975000Y-12555660D01*
X20975000Y-12515660D02*
X20935000Y-12555660D01*
X21062000Y-15296200D02*
X21102000Y-15336200D01*
X21102000Y-15296200D02*
X21062000Y-15336200D01*
X21361720Y-12822240D02*
X21401720Y-12862240D01*
X21401720Y-12822240D02*
X21361720Y-12862240D01*
X21392200Y-15296250D02*
X21432200Y-15336250D01*
X21432200Y-15296250D02*
X21392200Y-15336250D01*
X21580160Y-21082320D02*
X21620160Y-21122320D01*
X21620160Y-21082320D02*
X21580160Y-21122320D01*
X21829080Y-8030150D02*
X21869080Y-8070150D01*
X21869080Y-8030150D02*
X21829080Y-8070150D01*
X21924819Y-6363960D02*
X21964819Y-6403960D01*
X21964819Y-6363960D02*
X21924819Y-6403960D01*
X21966240Y-6263960D02*
X22006240Y-6303960D01*
X22006240Y-6263960D02*
X21966240Y-6303960D01*
X21968485Y-11008680D02*
X22008485Y-11048680D01*
X22008485Y-11008680D02*
X21968485Y-11048680D01*
X22057680Y-9692960D02*
X22097680Y-9732960D01*
X22097680Y-9692960D02*
X22057680Y-9732960D01*
X22159280Y-15296250D02*
X22199280Y-15336250D01*
X22199280Y-15296250D02*
X22159280Y-15336250D01*
X22194840Y-12883200D02*
X22234840Y-12923200D01*
X22234840Y-12883200D02*
X22194840Y-12923200D01*
X22260880Y-12615610D02*
X22300880Y-12655610D01*
X22300880Y-12615610D02*
X22260880Y-12655610D01*
X22306600Y-15392720D02*
X22346600Y-15432720D01*
X22346600Y-15392720D02*
X22306600Y-15432720D01*
X22545360Y-12740960D02*
X22585360Y-12780960D01*
X22585360Y-12740960D02*
X22545360Y-12780960D01*
X22692680Y-4795840D02*
X22732680Y-4835840D01*
X22732680Y-4795840D02*
X22692680Y-4835840D01*
X23094000Y-12570530D02*
X23134000Y-12610530D01*
X23134000Y-12570530D02*
X23094000Y-12610530D01*
X23190520Y-9788310D02*
X23230520Y-9828310D01*
X23230520Y-9788310D02*
X23190520Y-9828310D01*
X23226080Y-15292720D02*
X23266080Y-15332720D01*
X23266080Y-15292720D02*
X23226080Y-15332720D01*
X23342920Y-7884480D02*
X23382920Y-7924480D01*
X23382920Y-7884480D02*
X23342920Y-7924480D01*
X23495320Y-14757720D02*
X23535320Y-14797720D01*
X23535320Y-14757720D02*
X23495320Y-14797720D01*
X23673120Y-16302040D02*
X23713120Y-16342040D01*
X23713120Y-16302040D02*
X23673120Y-16342040D01*
X24384320Y-9698040D02*
X24424320Y-9738040D01*
X24424320Y-9698040D02*
X24384320Y-9738040D01*
X24440200Y-12827320D02*
X24480200Y-12867320D01*
X24480200Y-12827320D02*
X24440200Y-12867320D01*
X24448485Y-16378240D02*
X24488485Y-16418240D01*
X24488485Y-16378240D02*
X24448485Y-16418240D01*
X24518485Y-12984800D02*
X24558485Y-13024800D01*
X24558485Y-12984800D02*
X24518485Y-13024800D01*
X24518485Y-15306360D02*
X24558485Y-15346360D01*
X24558485Y-15306360D02*
X24518485Y-15346360D01*
X24562120Y-7970840D02*
X24602120Y-8010840D01*
X24602120Y-7970840D02*
X24562120Y-8010840D01*
X24733485Y-17825164D02*
X24773485Y-17865164D01*
X24773485Y-17825164D02*
X24733485Y-17865164D01*
X25608600Y-13066080D02*
X25648600Y-13106080D01*
X25648600Y-13066080D02*
X25608600Y-13106080D01*
X25619930Y-18262920D02*
X25659930Y-18302920D01*
X25659930Y-18262920D02*
X25619930Y-18302920D01*
X25684800Y-15235240D02*
X25724800Y-15275240D01*
X25724800Y-15235240D02*
X25684800Y-15275240D01*
X25689880Y-19675160D02*
X25729880Y-19715160D01*
X25729880Y-19675160D02*
X25689880Y-19715160D01*
X25759830Y-15443520D02*
X25799830Y-15483520D01*
X25799830Y-15443520D02*
X25759830Y-15483520D01*
X25759830Y-18080040D02*
X25799830Y-18120040D01*
X25799830Y-18080040D02*
X25759830Y-18120040D01*
X25857520Y-12735880D02*
X25897520Y-12775880D01*
X25897520Y-12735880D02*
X25857520Y-12775880D01*
X25882920Y-18010204D02*
X25922920Y-18050204D01*
X25922920Y-18010204D02*
X25882920Y-18050204D01*
X25910452Y-12590893D02*
X25950452Y-12630893D01*
X25950452Y-12590893D02*
X25910452Y-12630893D01*
X26761760Y-9778150D02*
X26801760Y-9818150D01*
X26801760Y-9778150D02*
X26761760Y-9818150D01*
X26817640Y-20416840D02*
X26857640Y-20456840D01*
X26857640Y-20416840D02*
X26817640Y-20456840D01*
X26843040Y-18928400D02*
X26883040Y-18968400D01*
X26883040Y-18928400D02*
X26843040Y-18968400D01*
X26882510Y-8692200D02*
X26922510Y-8732200D01*
X26922510Y-8692200D02*
X26882510Y-8732200D01*
X26882510Y-18675738D02*
X26922510Y-18715738D01*
X26922510Y-18675738D02*
X26882510Y-18715738D01*
X27412000Y-6771960D02*
X27452000Y-6811960D01*
X27452000Y-6771960D02*
X27412000Y-6811960D01*
X27457720Y-9708200D02*
X27497720Y-9748200D01*
X27497720Y-9708200D02*
X27457720Y-9748200D01*
X27559270Y-13736640D02*
X27599270Y-13776640D01*
X27599270Y-13736640D02*
X27559270Y-13776640D01*
X27559320Y-18010204D02*
X27599320Y-18050204D01*
X27599320Y-18010204D02*
X27559320Y-18050204D01*
X27620280Y-20289840D02*
X27660280Y-20329840D01*
X27660280Y-20289840D02*
X27620280Y-20329840D01*
X27767600Y-6838000D02*
X27807600Y-6878000D01*
X27807600Y-6838000D02*
X27767600Y-6878000D01*
X28168920Y-13417790D02*
X28208920Y-13457790D01*
X28208920Y-13417790D02*
X28168920Y-13457790D01*
X28269424Y-15683520D02*
X28309424Y-15723520D01*
X28309424Y-15683520D02*
X28269424Y-15723520D01*
X28361960Y-16161450D02*
X28401960Y-16201450D01*
X28401960Y-16161450D02*
X28361960Y-16201450D01*
X28422920Y-20145450D02*
X28462920Y-20185450D01*
X28462920Y-20145450D02*
X28422920Y-20185450D01*
X28499120Y-20325400D02*
X28539120Y-20365400D01*
X28539120Y-20325400D02*
X28499120Y-20365400D01*
X28770709Y-13811470D02*
X28810709Y-13851470D01*
X28810709Y-13811470D02*
X28770709Y-13851470D01*
X28788733Y-16047986D02*
X28828733Y-16087986D01*
X28828733Y-16047986D02*
X28788733Y-16087986D01*
X28809000Y-20254280D02*
X28849000Y-20294280D01*
X28849000Y-20254280D02*
X28809000Y-20294280D01*
X28863443Y-13771470D02*
X28903443Y-13811470D01*
X28903443Y-13771470D02*
X28863443Y-13811470D01*
X28880120Y-6768050D02*
X28920120Y-6808050D01*
X28920120Y-6768050D02*
X28880120Y-6808050D01*
X28914510Y-20127280D02*
X28954510Y-20167280D01*
X28954510Y-20127280D02*
X28914510Y-20167280D01*
X28963368Y-13750229D02*
X29003368Y-13790229D01*
X29003368Y-13750229D02*
X28963368Y-13790229D01*
X29047050Y-17785400D02*
X29087050Y-17825400D01*
X29087050Y-17785400D02*
X29047050Y-17825400D01*
X29052840Y-13691470D02*
X29092840Y-13731470D01*
X29092840Y-13691470D02*
X29052840Y-13731470D01*
X29085720Y-12310943D02*
X29125720Y-12350943D01*
X29125720Y-12310943D02*
X29085720Y-12350943D01*
X29087050Y-17932720D02*
X29127050Y-17972720D01*
X29127050Y-17932720D02*
X29087050Y-17972720D01*
X29127050Y-18323880D02*
X29167050Y-18363880D01*
X29167050Y-18323880D02*
X29127050Y-18363880D01*
X29167050Y-19030000D02*
X29207050Y-19070000D01*
X29207050Y-19030000D02*
X29167050Y-19070000D01*
X29181490Y-13651470D02*
X29221490Y-13691470D01*
X29221490Y-13651470D02*
X29181490Y-13691470D01*
X29184920Y-15643470D02*
X29224920Y-15683470D01*
X29224920Y-15643470D02*
X29184920Y-15683470D01*
X29198185Y-19732086D02*
X29238185Y-19772086D01*
X29238185Y-19732086D02*
X29198185Y-19772086D01*
X29210320Y-10500680D02*
X29250320Y-10540680D01*
X29250320Y-10500680D02*
X29210320Y-10540680D01*
X29281440Y-13611470D02*
X29321440Y-13651470D01*
X29321440Y-13611470D02*
X29281440Y-13651470D01*
X29286520Y-19685320D02*
X29326520Y-19725320D01*
X29326520Y-19685320D02*
X29286520Y-19725320D01*
X29317000Y-19197640D02*
X29357000Y-19237640D01*
X29357000Y-19197640D02*
X29317000Y-19237640D01*
X29385720Y-12304080D02*
X29425720Y-12344080D01*
X29425720Y-12304080D02*
X29385720Y-12344080D01*
X29386950Y-15829600D02*
X29426950Y-15869600D01*
X29426950Y-15829600D02*
X29386950Y-15869600D01*
X29386950Y-15956600D02*
X29426950Y-15996600D01*
X29426950Y-15956600D02*
X29386950Y-15996600D01*
X29386950Y-16368080D02*
X29426950Y-16408080D01*
X29426950Y-16368080D02*
X29386950Y-16408080D01*
X29386950Y-18025104D02*
X29426950Y-18065104D01*
X29426950Y-18025104D02*
X29386950Y-18065104D01*
X29426950Y-17526320D02*
X29466950Y-17566320D01*
X29466950Y-17526320D02*
X29426950Y-17566320D01*
X29444000Y-16149640D02*
X29484000Y-16189640D01*
X29484000Y-16149640D02*
X29444000Y-16189640D01*
X29520200Y-6812600D02*
X29560200Y-6852600D01*
X29560200Y-6812600D02*
X29520200Y-6852600D01*
X29530360Y-10414320D02*
X29570360Y-10454320D01*
X29570360Y-10414320D02*
X29530360Y-10454320D01*
X29545600Y-12857800D02*
X29585600Y-12897800D01*
X29585600Y-12857800D02*
X29545600Y-12897800D01*
X29618137Y-21084130D02*
X29658137Y-21124130D01*
X29658137Y-21084130D02*
X29618137Y-21124130D01*
X29652280Y-16261400D02*
X29692280Y-16301400D01*
X29692280Y-16261400D02*
X29652280Y-16301400D01*
X29715996Y-21124130D02*
X29755996Y-21164130D01*
X29755996Y-21124130D02*
X29715996Y-21164130D01*
X29789440Y-21194080D02*
X29829440Y-21234080D01*
X29829440Y-21194080D02*
X29789440Y-21234080D01*
X29946920Y-21244880D02*
X29986920Y-21284880D01*
X29986920Y-21244880D02*
X29946920Y-21284880D01*
X30048520Y-18025104D02*
X30088520Y-18065104D01*
X30088520Y-18025104D02*
X30048520Y-18065104D01*
X30068840Y-18268000D02*
X30108840Y-18308000D01*
X30108840Y-18268000D02*
X30068840Y-18308000D01*
X30089160Y-14788200D02*
X30129160Y-14828200D01*
X30129160Y-14788200D02*
X30089160Y-14828200D01*
X30104400Y-15982000D02*
X30144400Y-16022000D01*
X30144400Y-15982000D02*
X30104400Y-16022000D01*
X30124720Y-15804200D02*
X30164720Y-15844200D01*
X30164720Y-15804200D02*
X30124720Y-15844200D01*
X30149460Y-16256320D02*
X30189460Y-16296320D01*
X30189460Y-16256320D02*
X30149460Y-16296320D01*
X30246640Y-6142040D02*
X30286640Y-6182040D01*
X30286640Y-6142040D02*
X30246640Y-6182040D01*
X30363480Y-6254970D02*
X30403480Y-6294970D01*
X30403480Y-6254970D02*
X30363480Y-6294970D01*
X30495560Y-12065320D02*
X30535560Y-12105320D01*
X30535560Y-12065320D02*
X30495560Y-12105320D01*
X30500640Y-6380800D02*
X30540640Y-6420800D01*
X30540640Y-6380800D02*
X30500640Y-6420800D01*
X30531120Y-15976920D02*
X30571120Y-16016920D01*
X30571120Y-15976920D02*
X30531120Y-16016920D01*
X30538010Y-12893360D02*
X30578010Y-12933360D01*
X30578010Y-12893360D02*
X30538010Y-12933360D01*
X30546360Y-12350943D02*
X30586360Y-12390943D01*
X30586360Y-12350943D02*
X30546360Y-12390943D01*
X30693680Y-11140760D02*
X30733680Y-11180760D01*
X30733680Y-11140760D02*
X30693680Y-11180760D01*
X30749560Y-12390440D02*
X30789560Y-12430440D01*
X30789560Y-12390440D02*
X30749560Y-12430440D01*
X30769880Y-20985800D02*
X30809880Y-21025800D01*
X30809880Y-20985800D02*
X30769880Y-21025800D01*
X30912120Y-11140760D02*
X30952120Y-11180760D01*
X30952120Y-11140760D02*
X30912120Y-11180760D01*
X30998480Y-13523280D02*
X31038480Y-13563280D01*
X31038480Y-13523280D02*
X30998480Y-13563280D01*
X31056000Y-7701600D02*
X31096000Y-7741600D01*
X31096000Y-7701600D02*
X31056000Y-7741600D01*
X31130560Y-15565440D02*
X31170560Y-15605440D01*
X31170560Y-15565440D02*
X31130560Y-15605440D01*
X31166120Y-5420680D02*
X31206120Y-5460680D01*
X31206120Y-5420680D02*
X31166120Y-5460680D01*
X31201680Y-18867440D02*
X31241680Y-18907440D01*
X31241680Y-18867440D02*
X31201680Y-18907440D01*
X31237240Y-18476280D02*
X31277240Y-18516280D01*
X31277240Y-18476280D02*
X31237240Y-18516280D01*
X31257560Y-12019600D02*
X31297560Y-12059600D01*
X31297560Y-12019600D02*
X31257560Y-12059600D01*
X31257560Y-14776930D02*
X31297560Y-14816930D01*
X31297560Y-14776930D02*
X31257560Y-14816930D01*
X31389640Y-10394000D02*
X31429640Y-10434000D01*
X31429640Y-10394000D02*
X31389640Y-10434000D01*
X31389640Y-10973120D02*
X31429640Y-11013120D01*
X31429640Y-10973120D02*
X31389640Y-11013120D01*
X31405228Y-10492727D02*
X31445228Y-10532727D01*
X31445228Y-10492727D02*
X31405228Y-10532727D01*
X31486160Y-5608640D02*
X31526160Y-5648640D01*
X31526160Y-5608640D02*
X31486160Y-5648640D01*
X31917960Y-4557080D02*
X31957960Y-4597080D01*
X31957960Y-4557080D02*
X31917960Y-4597080D01*
X31925238Y-13311570D02*
X31965238Y-13351570D01*
X31965238Y-13311570D02*
X31925238Y-13351570D01*
X31928120Y-21143280D02*
X31968120Y-21183280D01*
X31968120Y-21143280D02*
X31928120Y-21183280D01*
X32009400Y-13457240D02*
X32049400Y-13497240D01*
X32049400Y-13457240D02*
X32009400Y-13497240D01*
X32080520Y-5578160D02*
X32120520Y-5618160D01*
X32120520Y-5578160D02*
X32080520Y-5618160D01*
X32099424Y-16688120D02*
X32139424Y-16728120D01*
X32139424Y-16688120D02*
X32099424Y-16728120D01*
X32202440Y-17887000D02*
X32242440Y-17927000D01*
X32242440Y-17887000D02*
X32202440Y-17927000D01*
X32207520Y-16027720D02*
X32247520Y-16067720D01*
X32247520Y-16027720D02*
X32207520Y-16067720D01*
X32542800Y-14102400D02*
X32582800Y-14142400D01*
X32582800Y-14102400D02*
X32542800Y-14142400D01*
X32740920Y-5446080D02*
X32780920Y-5486080D01*
X32780920Y-5446080D02*
X32740920Y-5486080D01*
X32944120Y-13548680D02*
X32984120Y-13588680D01*
X32984120Y-13548680D02*
X32944120Y-13588680D01*
X33024424Y-14637030D02*
X33064424Y-14677030D01*
X33064424Y-14637030D02*
X33024424Y-14677030D01*
X33030480Y-5583240D02*
X33070480Y-5623240D01*
X33070480Y-5583240D02*
X33030480Y-5623240D01*
X33167640Y-14681520D02*
X33207640Y-14721520D01*
X33207640Y-14681520D02*
X33167640Y-14721520D01*
X33274320Y-12490893D02*
X33314320Y-12530893D01*
X33314320Y-12490893D02*
X33274320Y-12530893D01*
X33412650Y-13934760D02*
X33452650Y-13974760D01*
X33452650Y-13934760D02*
X33412650Y-13974760D01*
X33462280Y-8636320D02*
X33502280Y-8676320D01*
X33502280Y-8636320D02*
X33462280Y-8676320D01*
X33543560Y-12490943D02*
X33583560Y-12530943D01*
X33583560Y-12490943D02*
X33543560Y-12530943D01*
X33716280Y-14325920D02*
X33756280Y-14365920D01*
X33756280Y-14325920D02*
X33716280Y-14365920D01*
X34285240Y-13868720D02*
X34325240Y-13908720D01*
X34325240Y-13868720D02*
X34285240Y-13908720D01*
X34595120Y-12624120D02*
X34635120Y-12664120D01*
X34635120Y-12624120D02*
X34595120Y-12664120D01*
X15272420Y-14787880D02*
G75*
G02*
X15197420Y-14787880I-37500J0D01*
G01*
X15197420Y-14787880D02*
G75*
G02*
X15272420Y-14787880I37500J0D01*
G01*
X15277500Y-14950440D02*
G75*
G02*
X15202500Y-14950440I-37500J0D01*
G01*
X15202500Y-14950440D02*
G75*
G02*
X15277500Y-14950440I37500J0D01*
G01*
X15516260Y-14787880D02*
G75*
G02*
X15441260Y-14787880I-37500J0D01*
G01*
X15441260Y-14787880D02*
G75*
G02*
X15516260Y-14787880I37500J0D01*
G01*
X15521340Y-14975840D02*
G75*
G02*
X15446340Y-14975840I-37500J0D01*
G01*
X15446340Y-14975840D02*
G75*
G02*
X15521340Y-14975840I37500J0D01*
G01*
X15902340Y-9337040D02*
G75*
G02*
X15827340Y-9337040I-37500J0D01*
G01*
X15827340Y-9337040D02*
G75*
G02*
X15902340Y-9337040I37500J0D01*
G01*
X15907420Y-9108440D02*
G75*
G02*
X15832420Y-9108440I-37500J0D01*
G01*
X15832420Y-9108440D02*
G75*
G02*
X15907420Y-9108440I37500J0D01*
G01*
X16130940Y-9342120D02*
G75*
G02*
X16055940Y-9342120I-37500J0D01*
G01*
X16055940Y-9342120D02*
G75*
G02*
X16130940Y-9342120I37500J0D01*
G01*
X16136020Y-9108440D02*
G75*
G02*
X16061020Y-9108440I-37500J0D01*
G01*
X16061020Y-9108440D02*
G75*
G02*
X16136020Y-9108440I37500J0D01*
G01*
X18823340Y-5003800D02*
G75*
G02*
X18748340Y-5003800I-37500J0D01*
G01*
X18748340Y-5003800D02*
G75*
G02*
X18823340Y-5003800I37500J0D01*
G01*
X19204340Y-5008880D02*
G75*
G02*
X19129340Y-5008880I-37500J0D01*
G01*
X19129340Y-5008880D02*
G75*
G02*
X19204340Y-5008880I37500J0D01*
G01*
X19935860Y-9316720D02*
G75*
G02*
X19860860Y-9316720I-37500J0D01*
G01*
X19860860Y-9316720D02*
G75*
G02*
X19935860Y-9316720I37500J0D01*
G01*
X19940940Y-9088120D02*
G75*
G02*
X19865940Y-9088120I-37500J0D01*
G01*
X19865940Y-9088120D02*
G75*
G02*
X19940940Y-9088120I37500J0D01*
G01*
X19961260Y-4668520D02*
G75*
G02*
X19886260Y-4668520I-37500J0D01*
G01*
X19886260Y-4668520D02*
G75*
G02*
X19961260Y-4668520I37500J0D01*
G01*
X20164460Y-9321800D02*
G75*
G02*
X20089460Y-9321800I-37500J0D01*
G01*
X20089460Y-9321800D02*
G75*
G02*
X20164460Y-9321800I37500J0D01*
G01*
X20169540Y-9088120D02*
G75*
G02*
X20094540Y-9088120I-37500J0D01*
G01*
X20094540Y-9088120D02*
G75*
G02*
X20169540Y-9088120I37500J0D01*
G01*
X31487780Y-17719040D02*
G75*
G02*
X31412780Y-17719040I-37500J0D01*
G01*
X31412780Y-17719040D02*
G75*
G02*
X31487780Y-17719040I37500J0D01*
G01*
X31503020Y-17520920D02*
G75*
G02*
X31428020Y-17520920I-37500J0D01*
G01*
X31428020Y-17520920D02*
G75*
G02*
X31503020Y-17520920I37500J0D01*
G01*
X31533500Y-15245080D02*
G75*
G02*
X31458500Y-15245080I-37500J0D01*
G01*
X31458500Y-15245080D02*
G75*
G02*
X31533500Y-15245080I37500J0D01*
G01*
X31548740Y-15046960D02*
G75*
G02*
X31473740Y-15046960I-37500J0D01*
G01*
X31473740Y-15046960D02*
G75*
G02*
X31548740Y-15046960I37500J0D01*
G01*
X31736700Y-17749520D02*
G75*
G02*
X31661700Y-17749520I-37500J0D01*
G01*
X31661700Y-17749520D02*
G75*
G02*
X31736700Y-17749520I37500J0D01*
G01*
X31746860Y-17520920D02*
G75*
G02*
X31671860Y-17520920I-37500J0D01*
G01*
X31671860Y-17520920D02*
G75*
G02*
X31746860Y-17520920I37500J0D01*
G01*
X31782420Y-15275560D02*
G75*
G02*
X31707420Y-15275560I-37500J0D01*
G01*
X31707420Y-15275560D02*
G75*
G02*
X31782420Y-15275560I37500J0D01*
G01*
X31792580Y-15046960D02*
G75*
G02*
X31717580Y-15046960I-37500J0D01*
G01*
X31717580Y-15046960D02*
G75*
G02*
X31792580Y-15046960I37500J0D01*
G01*
X29103820Y-4776000D02*
X29103820Y-4876000D01*
X29053820Y-4826000D02*
X29153820Y-4826000D01*
X29107900Y-4166400D02*
X29107900Y-4266400D01*
X29057900Y-4216400D02*
X29157900Y-4216400D01*
X29357820Y-4776000D02*
X29357820Y-4876000D01*
X29307820Y-4826000D02*
X29407820Y-4826000D01*
X29361900Y-4166400D02*
X29361900Y-4266400D01*
X29311900Y-4216400D02*
X29411900Y-4216400D01*
X31139900Y-4191800D02*
X31139900Y-4291800D01*
X31089900Y-4241800D02*
X31189900Y-4241800D01*
X31140400Y-4877600D02*
X31140400Y-4977600D01*
X31090400Y-4927600D02*
X31190400Y-4927600D01*
X31393900Y-4191800D02*
X31393900Y-4291800D01*
X31343900Y-4241800D02*
X31443900Y-4241800D01*
X31394400Y-4877600D02*
X31394400Y-4977600D01*
X31344400Y-4927600D02*
X31444400Y-4927600D01*
D12*
X15080357Y-16992036D02*
X15080357Y-16868291D01*
X14956613Y-16868291D01*
X14956613Y-16992036D01*
X15080357Y-16992036D01*
X15080357Y-17392036D02*
X15080357Y-17268291D01*
X14956613Y-17268291D01*
X14956613Y-17392036D01*
X15080357Y-17392036D01*
X15080357Y-17792036D02*
X15080357Y-17668291D01*
X14956613Y-17668291D01*
X14956613Y-17792036D01*
X15080357Y-17792036D01*
X15080357Y-18192036D02*
X15080357Y-18068291D01*
X14956613Y-18068291D01*
X14956613Y-18192036D01*
X15080357Y-18192036D01*
X15080357Y-18592036D02*
X15080357Y-18468291D01*
X14956613Y-18468291D01*
X14956613Y-18592036D01*
X15080357Y-18592036D01*
X15080357Y-18992036D02*
X15080357Y-18868291D01*
X14956613Y-18868291D01*
X14956613Y-18992036D01*
X15080357Y-18992036D01*
X15080357Y-19392036D02*
X15080357Y-19268291D01*
X14956613Y-19268291D01*
X14956613Y-19392036D01*
X15080357Y-19392036D01*
X15080357Y-19792036D02*
X15080357Y-19668291D01*
X14956613Y-19668291D01*
X14956613Y-19792036D01*
X15080357Y-19792036D01*
X15480357Y-17192036D02*
X15480357Y-17068291D01*
X15356613Y-17068291D01*
X15356613Y-17192036D01*
X15480357Y-17192036D01*
X15480357Y-17592036D02*
X15480357Y-17468291D01*
X15356613Y-17468291D01*
X15356613Y-17592036D01*
X15480357Y-17592036D01*
X15480357Y-17992036D02*
X15480357Y-17868291D01*
X15356613Y-17868291D01*
X15356613Y-17992036D01*
X15480357Y-17992036D01*
X15480357Y-18392036D02*
X15480357Y-18268291D01*
X15356613Y-18268291D01*
X15356613Y-18392036D01*
X15480357Y-18392036D01*
X15480357Y-18792036D02*
X15480357Y-18668291D01*
X15356613Y-18668291D01*
X15356613Y-18792036D01*
X15480357Y-18792036D01*
X15480357Y-19192036D02*
X15480357Y-19068291D01*
X15356613Y-19068291D01*
X15356613Y-19192036D01*
X15480357Y-19192036D01*
X15480357Y-19592036D02*
X15480357Y-19468291D01*
X15356613Y-19468291D01*
X15356613Y-19592036D01*
X15480357Y-19592036D01*
X15880357Y-16992036D02*
X15880357Y-16868291D01*
X15756613Y-16868291D01*
X15756613Y-16992036D01*
X15880357Y-16992036D01*
X15880357Y-17392036D02*
X15880357Y-17268291D01*
X15756613Y-17268291D01*
X15756613Y-17392036D01*
X15880357Y-17392036D01*
X15880357Y-17792036D02*
X15880357Y-17668291D01*
X15756613Y-17668291D01*
X15756613Y-17792036D01*
X15880357Y-17792036D01*
X15880357Y-18192036D02*
X15880357Y-18068291D01*
X15756613Y-18068291D01*
X15756613Y-18192036D01*
X15880357Y-18192036D01*
X15880357Y-18592036D02*
X15880357Y-18468291D01*
X15756613Y-18468291D01*
X15756613Y-18592036D01*
X15880357Y-18592036D01*
X15880357Y-18992036D02*
X15880357Y-18868291D01*
X15756613Y-18868291D01*
X15756613Y-18992036D01*
X15880357Y-18992036D01*
X15880357Y-19392036D02*
X15880357Y-19268291D01*
X15756613Y-19268291D01*
X15756613Y-19392036D01*
X15880357Y-19392036D01*
X15880357Y-19792036D02*
X15880357Y-19668291D01*
X15756613Y-19668291D01*
X15756613Y-19792036D01*
X15880357Y-19792036D01*
X16376072Y-6465312D02*
X16376072Y-6341568D01*
X16252328Y-6341568D01*
X16252328Y-6465312D01*
X16376072Y-6465312D01*
X16376072Y-7265312D02*
X16376072Y-7141568D01*
X16252328Y-7141568D01*
X16252328Y-7265312D01*
X16376072Y-7265312D01*
X16576072Y-6865312D02*
X16576072Y-6741568D01*
X16452328Y-6741568D01*
X16452328Y-6865312D01*
X16576072Y-6865312D01*
X16720712Y-11088112D02*
X16720712Y-10964368D01*
X16596968Y-10964368D01*
X16596968Y-11088112D01*
X16720712Y-11088112D01*
X16720712Y-11888112D02*
X16720712Y-11764368D01*
X16596968Y-11764368D01*
X16596968Y-11888112D01*
X16720712Y-11888112D01*
X16776072Y-6465312D02*
X16776072Y-6341568D01*
X16652328Y-6341568D01*
X16652328Y-6465312D01*
X16776072Y-6465312D01*
X16776072Y-7265312D02*
X16776072Y-7141568D01*
X16652328Y-7141568D01*
X16652328Y-7265312D01*
X16776072Y-7265312D01*
X16920712Y-11488112D02*
X16920712Y-11364368D01*
X16796968Y-11364368D01*
X16796968Y-11488112D01*
X16920712Y-11488112D01*
X16976072Y-6865312D02*
X16976072Y-6741568D01*
X16852328Y-6741568D01*
X16852328Y-6865312D01*
X16976072Y-6865312D01*
X17120712Y-11088112D02*
X17120712Y-10964368D01*
X16996968Y-10964368D01*
X16996968Y-11088112D01*
X17120712Y-11088112D01*
X17120712Y-11888112D02*
X17120712Y-11764368D01*
X16996968Y-11764368D01*
X16996968Y-11888112D01*
X17120712Y-11888112D01*
X17176072Y-6465312D02*
X17176072Y-6341568D01*
X17052328Y-6341568D01*
X17052328Y-6465312D01*
X17176072Y-6465312D01*
X17176072Y-7265312D02*
X17176072Y-7141568D01*
X17052328Y-7141568D01*
X17052328Y-7265312D01*
X17176072Y-7265312D01*
X17320712Y-11488112D02*
X17320712Y-11364368D01*
X17196968Y-11364368D01*
X17196968Y-11488112D01*
X17320712Y-11488112D01*
X17376072Y-6865312D02*
X17376072Y-6741568D01*
X17252328Y-6741568D01*
X17252328Y-6865312D01*
X17376072Y-6865312D01*
X17520712Y-11088112D02*
X17520712Y-10964368D01*
X17396968Y-10964368D01*
X17396968Y-11088112D01*
X17520712Y-11088112D01*
X17520712Y-11888112D02*
X17520712Y-11764368D01*
X17396968Y-11764368D01*
X17396968Y-11888112D01*
X17520712Y-11888112D01*
X17576072Y-6465312D02*
X17576072Y-6341568D01*
X17452328Y-6341568D01*
X17452328Y-6465312D01*
X17576072Y-6465312D01*
X17576072Y-7265312D02*
X17576072Y-7141568D01*
X17452328Y-7141568D01*
X17452328Y-7265312D01*
X17576072Y-7265312D01*
X17720712Y-11488112D02*
X17720712Y-11364368D01*
X17596968Y-11364368D01*
X17596968Y-11488112D01*
X17720712Y-11488112D01*
X17776072Y-6865312D02*
X17776072Y-6741568D01*
X17652328Y-6741568D01*
X17652328Y-6865312D01*
X17776072Y-6865312D01*
X17920712Y-11088112D02*
X17920712Y-10964368D01*
X17796968Y-10964368D01*
X17796968Y-11088112D01*
X17920712Y-11088112D01*
X17920712Y-11888112D02*
X17920712Y-11764368D01*
X17796968Y-11764368D01*
X17796968Y-11888112D01*
X17920712Y-11888112D01*
X17976072Y-6465312D02*
X17976072Y-6341568D01*
X17852328Y-6341568D01*
X17852328Y-6465312D01*
X17976072Y-6465312D01*
X17976072Y-7265312D02*
X17976072Y-7141568D01*
X17852328Y-7141568D01*
X17852328Y-7265312D01*
X17976072Y-7265312D01*
X18120712Y-11488112D02*
X18120712Y-11364368D01*
X17996968Y-11364368D01*
X17996968Y-11488112D01*
X18120712Y-11488112D01*
X18320712Y-11088112D02*
X18320712Y-10964368D01*
X18196968Y-10964368D01*
X18196968Y-11088112D01*
X18320712Y-11088112D01*
X18320712Y-11888112D02*
X18320712Y-11764368D01*
X18196968Y-11764368D01*
X18196968Y-11888112D01*
X18320712Y-11888112D01*
X18520712Y-11488112D02*
X18520712Y-11364368D01*
X18396968Y-11364368D01*
X18396968Y-11488112D01*
X18520712Y-11488112D01*
X18720712Y-11088112D02*
X18720712Y-10964368D01*
X18596968Y-10964368D01*
X18596968Y-11088112D01*
X18720712Y-11088112D01*
X18720712Y-11888112D02*
X18720712Y-11764368D01*
X18596968Y-11764368D01*
X18596968Y-11888112D01*
X18720712Y-11888112D01*
X18920712Y-11488112D02*
X18920712Y-11364368D01*
X18796968Y-11364368D01*
X18796968Y-11488112D01*
X18920712Y-11488112D01*
X19120712Y-11088112D02*
X19120712Y-10964368D01*
X18996968Y-10964368D01*
X18996968Y-11088112D01*
X19120712Y-11088112D01*
X19120712Y-11888112D02*
X19120712Y-11764368D01*
X18996968Y-11764368D01*
X18996968Y-11888112D01*
X19120712Y-11888112D01*
X19320712Y-11488112D02*
X19320712Y-11364368D01*
X19196968Y-11364368D01*
X19196968Y-11488112D01*
X19320712Y-11488112D01*
X19380358Y-16992036D02*
X19380358Y-16868291D01*
X19256613Y-16868291D01*
X19256613Y-16992036D01*
X19380358Y-16992036D01*
X19380358Y-17392036D02*
X19380358Y-17268291D01*
X19256613Y-17268291D01*
X19256613Y-17392036D01*
X19380358Y-17392036D01*
X19380358Y-17792036D02*
X19380358Y-17668291D01*
X19256613Y-17668291D01*
X19256613Y-17792036D01*
X19380358Y-17792036D01*
X19380358Y-18192036D02*
X19380358Y-18068291D01*
X19256613Y-18068291D01*
X19256613Y-18192036D01*
X19380358Y-18192036D01*
X19380358Y-18592036D02*
X19380358Y-18468291D01*
X19256613Y-18468291D01*
X19256613Y-18592036D01*
X19380358Y-18592036D01*
X19380358Y-18992036D02*
X19380358Y-18868291D01*
X19256613Y-18868291D01*
X19256613Y-18992036D01*
X19380358Y-18992036D01*
X19380358Y-19392036D02*
X19380358Y-19268291D01*
X19256613Y-19268291D01*
X19256613Y-19392036D01*
X19380358Y-19392036D01*
X19380358Y-19792036D02*
X19380358Y-19668291D01*
X19256613Y-19668291D01*
X19256613Y-19792036D01*
X19380358Y-19792036D01*
X19520712Y-11088112D02*
X19520712Y-10964368D01*
X19396968Y-10964368D01*
X19396968Y-11088112D01*
X19520712Y-11088112D01*
X19520712Y-11888112D02*
X19520712Y-11764368D01*
X19396968Y-11764368D01*
X19396968Y-11888112D01*
X19520712Y-11888112D01*
X19780358Y-17192036D02*
X19780358Y-17068291D01*
X19656613Y-17068291D01*
X19656613Y-17192036D01*
X19780358Y-17192036D01*
X19780358Y-17592036D02*
X19780358Y-17468291D01*
X19656613Y-17468291D01*
X19656613Y-17592036D01*
X19780358Y-17592036D01*
X19780358Y-17992036D02*
X19780358Y-17868291D01*
X19656613Y-17868291D01*
X19656613Y-17992036D01*
X19780358Y-17992036D01*
X19780358Y-18392036D02*
X19780358Y-18268291D01*
X19656613Y-18268291D01*
X19656613Y-18392036D01*
X19780358Y-18392036D01*
X19780358Y-18792036D02*
X19780358Y-18668291D01*
X19656613Y-18668291D01*
X19656613Y-18792036D01*
X19780358Y-18792036D01*
X19780358Y-19192036D02*
X19780358Y-19068291D01*
X19656613Y-19068291D01*
X19656613Y-19192036D01*
X19780358Y-19192036D01*
X19780358Y-19592036D02*
X19780358Y-19468291D01*
X19656613Y-19468291D01*
X19656613Y-19592036D01*
X19780358Y-19592036D01*
X20180358Y-16992036D02*
X20180358Y-16868291D01*
X20056613Y-16868291D01*
X20056613Y-16992036D01*
X20180358Y-16992036D01*
X20180358Y-17392036D02*
X20180358Y-17268291D01*
X20056613Y-17268291D01*
X20056613Y-17392036D01*
X20180358Y-17392036D01*
X20180358Y-17792036D02*
X20180358Y-17668291D01*
X20056613Y-17668291D01*
X20056613Y-17792036D01*
X20180358Y-17792036D01*
X20180358Y-18192036D02*
X20180358Y-18068291D01*
X20056613Y-18068291D01*
X20056613Y-18192036D01*
X20180358Y-18192036D01*
X20180358Y-18592036D02*
X20180358Y-18468291D01*
X20056613Y-18468291D01*
X20056613Y-18592036D01*
X20180358Y-18592036D01*
X20180358Y-18992036D02*
X20180358Y-18868291D01*
X20056613Y-18868291D01*
X20056613Y-18992036D01*
X20180358Y-18992036D01*
X20180358Y-19392036D02*
X20180358Y-19268291D01*
X20056613Y-19268291D01*
X20056613Y-19392036D01*
X20180358Y-19392036D01*
X20180358Y-19792036D02*
X20180358Y-19668291D01*
X20056613Y-19668291D01*
X20056613Y-19792036D01*
X20180358Y-19792036D01*
X22519432Y-6561832D02*
X22519432Y-6438088D01*
X22395688Y-6438088D01*
X22395688Y-6561832D01*
X22519432Y-6561832D01*
X22519432Y-7361832D02*
X22519432Y-7238088D01*
X22395688Y-7238088D01*
X22395688Y-7361832D01*
X22519432Y-7361832D01*
X22719432Y-6961832D02*
X22719432Y-6838088D01*
X22595688Y-6838088D01*
X22595688Y-6961832D01*
X22719432Y-6961832D01*
X22919432Y-6561832D02*
X22919432Y-6438088D01*
X22795688Y-6438088D01*
X22795688Y-6561832D01*
X22919432Y-6561832D01*
X22919432Y-7361832D02*
X22919432Y-7238088D01*
X22795688Y-7238088D01*
X22795688Y-7361832D01*
X22919432Y-7361832D01*
X23119432Y-6961832D02*
X23119432Y-6838088D01*
X22995688Y-6838088D01*
X22995688Y-6961832D01*
X23119432Y-6961832D01*
X23319432Y-6561832D02*
X23319432Y-6438088D01*
X23195688Y-6438088D01*
X23195688Y-6561832D01*
X23319432Y-6561832D01*
X23319432Y-7361832D02*
X23319432Y-7238088D01*
X23195688Y-7238088D01*
X23195688Y-7361832D01*
X23319432Y-7361832D01*
X23519432Y-6961832D02*
X23519432Y-6838088D01*
X23395688Y-6838088D01*
X23395688Y-6961832D01*
X23519432Y-6961832D01*
X23719432Y-6561832D02*
X23719432Y-6438088D01*
X23595688Y-6438088D01*
X23595688Y-6561832D01*
X23719432Y-6561832D01*
X23719432Y-7361832D02*
X23719432Y-7238088D01*
X23595688Y-7238088D01*
X23595688Y-7361832D01*
X23719432Y-7361832D01*
X23730357Y-16992036D02*
X23730357Y-16868291D01*
X23606613Y-16868291D01*
X23606613Y-16992036D01*
X23730357Y-16992036D01*
X23730357Y-17392036D02*
X23730357Y-17268291D01*
X23606613Y-17268291D01*
X23606613Y-17392036D01*
X23730357Y-17392036D01*
X23730357Y-17792036D02*
X23730357Y-17668291D01*
X23606613Y-17668291D01*
X23606613Y-17792036D01*
X23730357Y-17792036D01*
X23730357Y-18192036D02*
X23730357Y-18068291D01*
X23606613Y-18068291D01*
X23606613Y-18192036D01*
X23730357Y-18192036D01*
X23730357Y-18592036D02*
X23730357Y-18468291D01*
X23606613Y-18468291D01*
X23606613Y-18592036D01*
X23730357Y-18592036D01*
X23730357Y-18992036D02*
X23730357Y-18868291D01*
X23606613Y-18868291D01*
X23606613Y-18992036D01*
X23730357Y-18992036D01*
X23730357Y-19392036D02*
X23730357Y-19268291D01*
X23606613Y-19268291D01*
X23606613Y-19392036D01*
X23730357Y-19392036D01*
X23730357Y-19792036D02*
X23730357Y-19668291D01*
X23606613Y-19668291D01*
X23606613Y-19792036D01*
X23730357Y-19792036D01*
X23919432Y-6961832D02*
X23919432Y-6838088D01*
X23795688Y-6838088D01*
X23795688Y-6961832D01*
X23919432Y-6961832D01*
X24119432Y-6561832D02*
X24119432Y-6438088D01*
X23995688Y-6438088D01*
X23995688Y-6561832D01*
X24119432Y-6561832D01*
X24119432Y-7361832D02*
X24119432Y-7238088D01*
X23995688Y-7238088D01*
X23995688Y-7361832D01*
X24119432Y-7361832D01*
X24130357Y-17192036D02*
X24130357Y-17068291D01*
X24006613Y-17068291D01*
X24006613Y-17192036D01*
X24130357Y-17192036D01*
X24130357Y-17592036D02*
X24130357Y-17468291D01*
X24006613Y-17468291D01*
X24006613Y-17592036D01*
X24130357Y-17592036D01*
X24130357Y-17992036D02*
X24130357Y-17868291D01*
X24006613Y-17868291D01*
X24006613Y-17992036D01*
X24130357Y-17992036D01*
X24130357Y-18392036D02*
X24130357Y-18268291D01*
X24006613Y-18268291D01*
X24006613Y-18392036D01*
X24130357Y-18392036D01*
X24130357Y-18792036D02*
X24130357Y-18668291D01*
X24006613Y-18668291D01*
X24006613Y-18792036D01*
X24130357Y-18792036D01*
X24130357Y-19192036D02*
X24130357Y-19068291D01*
X24006613Y-19068291D01*
X24006613Y-19192036D01*
X24130357Y-19192036D01*
X24130357Y-19592036D02*
X24130357Y-19468291D01*
X24006613Y-19468291D01*
X24006613Y-19592036D01*
X24130357Y-19592036D01*
X24319432Y-6961832D02*
X24319432Y-6838088D01*
X24195688Y-6838088D01*
X24195688Y-6961832D01*
X24319432Y-6961832D01*
X24519432Y-6561832D02*
X24519432Y-6438088D01*
X24395688Y-6438088D01*
X24395688Y-6561832D01*
X24519432Y-6561832D01*
X24519432Y-7361832D02*
X24519432Y-7238088D01*
X24395688Y-7238088D01*
X24395688Y-7361832D01*
X24519432Y-7361832D01*
X24530357Y-16992036D02*
X24530357Y-16868291D01*
X24406613Y-16868291D01*
X24406613Y-16992036D01*
X24530357Y-16992036D01*
X24530357Y-17392036D02*
X24530357Y-17268291D01*
X24406613Y-17268291D01*
X24406613Y-17392036D01*
X24530357Y-17392036D01*
X24530357Y-17792036D02*
X24530357Y-17668291D01*
X24406613Y-17668291D01*
X24406613Y-17792036D01*
X24530357Y-17792036D01*
X24530357Y-18192036D02*
X24530357Y-18068291D01*
X24406613Y-18068291D01*
X24406613Y-18192036D01*
X24530357Y-18192036D01*
X24530357Y-18592036D02*
X24530357Y-18468291D01*
X24406613Y-18468291D01*
X24406613Y-18592036D01*
X24530357Y-18592036D01*
X24530357Y-18992036D02*
X24530357Y-18868291D01*
X24406613Y-18868291D01*
X24406613Y-18992036D01*
X24530357Y-18992036D01*
X24530357Y-19392036D02*
X24530357Y-19268291D01*
X24406613Y-19268291D01*
X24406613Y-19392036D01*
X24530357Y-19392036D01*
X24530357Y-19792036D02*
X24530357Y-19668291D01*
X24406613Y-19668291D01*
X24406613Y-19792036D01*
X24530357Y-19792036D01*
X24719432Y-6961832D02*
X24719432Y-6838088D01*
X24595688Y-6838088D01*
X24595688Y-6961832D01*
X24719432Y-6961832D01*
X24919432Y-6561832D02*
X24919432Y-6438088D01*
X24795688Y-6438088D01*
X24795688Y-6561832D01*
X24919432Y-6561832D01*
X24919432Y-7361832D02*
X24919432Y-7238088D01*
X24795688Y-7238088D01*
X24795688Y-7361832D01*
X24919432Y-7361832D01*
X25119432Y-6961832D02*
X25119432Y-6838088D01*
X24995688Y-6838088D01*
X24995688Y-6961832D01*
X25119432Y-6961832D01*
X25319432Y-6561832D02*
X25319432Y-6438088D01*
X25195688Y-6438088D01*
X25195688Y-6561832D01*
X25319432Y-6561832D01*
X25319432Y-7361832D02*
X25319432Y-7238088D01*
X25195688Y-7238088D01*
X25195688Y-7361832D01*
X25319432Y-7361832D01*
X27881347Y-16992026D02*
X27881347Y-16868281D01*
X27757602Y-16868281D01*
X27757602Y-16992026D01*
X27881347Y-16992026D01*
X27881347Y-17392026D02*
X27881347Y-17268281D01*
X27757602Y-17268281D01*
X27757602Y-17392026D01*
X27881347Y-17392026D01*
X27881347Y-17792026D02*
X27881347Y-17668281D01*
X27757602Y-17668281D01*
X27757602Y-17792026D01*
X27881347Y-17792026D01*
X27881347Y-18192026D02*
X27881347Y-18068281D01*
X27757602Y-18068281D01*
X27757602Y-18192026D01*
X27881347Y-18192026D01*
X27881347Y-18592026D02*
X27881347Y-18468281D01*
X27757602Y-18468281D01*
X27757602Y-18592026D01*
X27881347Y-18592026D01*
X27881347Y-18992026D02*
X27881347Y-18868281D01*
X27757602Y-18868281D01*
X27757602Y-18992026D01*
X27881347Y-18992026D01*
X27881347Y-19392026D02*
X27881347Y-19268281D01*
X27757602Y-19268281D01*
X27757602Y-19392026D01*
X27881347Y-19392026D01*
X27881347Y-19792026D02*
X27881347Y-19668281D01*
X27757602Y-19668281D01*
X27757602Y-19792026D01*
X27881347Y-19792026D01*
X28281347Y-17192026D02*
X28281347Y-17068281D01*
X28157602Y-17068281D01*
X28157602Y-17192026D01*
X28281347Y-17192026D01*
X28281347Y-17592026D02*
X28281347Y-17468281D01*
X28157602Y-17468281D01*
X28157602Y-17592026D01*
X28281347Y-17592026D01*
X28281347Y-17992026D02*
X28281347Y-17868281D01*
X28157602Y-17868281D01*
X28157602Y-17992026D01*
X28281347Y-17992026D01*
X28281347Y-18392026D02*
X28281347Y-18268281D01*
X28157602Y-18268281D01*
X28157602Y-18392026D01*
X28281347Y-18392026D01*
X28281347Y-18792026D02*
X28281347Y-18668281D01*
X28157602Y-18668281D01*
X28157602Y-18792026D01*
X28281347Y-18792026D01*
X28281347Y-19192026D02*
X28281347Y-19068281D01*
X28157602Y-19068281D01*
X28157602Y-19192026D01*
X28281347Y-19192026D01*
X28281347Y-19592026D02*
X28281347Y-19468281D01*
X28157602Y-19468281D01*
X28157602Y-19592026D01*
X28281347Y-19592026D01*
X28681347Y-16992026D02*
X28681347Y-16868281D01*
X28557602Y-16868281D01*
X28557602Y-16992026D01*
X28681347Y-16992026D01*
X28681347Y-17392026D02*
X28681347Y-17268281D01*
X28557602Y-17268281D01*
X28557602Y-17392026D01*
X28681347Y-17392026D01*
X28681347Y-17792026D02*
X28681347Y-17668281D01*
X28557602Y-17668281D01*
X28557602Y-17792026D01*
X28681347Y-17792026D01*
X28681347Y-18192026D02*
X28681347Y-18068281D01*
X28557602Y-18068281D01*
X28557602Y-18192026D01*
X28681347Y-18192026D01*
X28681347Y-18592026D02*
X28681347Y-18468281D01*
X28557602Y-18468281D01*
X28557602Y-18592026D01*
X28681347Y-18592026D01*
X28681347Y-18992026D02*
X28681347Y-18868281D01*
X28557602Y-18868281D01*
X28557602Y-18992026D01*
X28681347Y-18992026D01*
X28681347Y-19392026D02*
X28681347Y-19268281D01*
X28557602Y-19268281D01*
X28557602Y-19392026D01*
X28681347Y-19392026D01*
X28681347Y-19792026D02*
X28681347Y-19668281D01*
X28557602Y-19668281D01*
X28557602Y-19792026D01*
X28681347Y-19792026D01*
X32081347Y-16992026D02*
X32081347Y-16868281D01*
X31957602Y-16868281D01*
X31957602Y-16992026D01*
X32081347Y-16992026D01*
X32081347Y-17392026D02*
X32081347Y-17268281D01*
X31957602Y-17268281D01*
X31957602Y-17392026D01*
X32081347Y-17392026D01*
X32081347Y-17792026D02*
X32081347Y-17668281D01*
X31957602Y-17668281D01*
X31957602Y-17792026D01*
X32081347Y-17792026D01*
X32081347Y-18192026D02*
X32081347Y-18068281D01*
X31957602Y-18068281D01*
X31957602Y-18192026D01*
X32081347Y-18192026D01*
X32081347Y-18592026D02*
X32081347Y-18468281D01*
X31957602Y-18468281D01*
X31957602Y-18592026D01*
X32081347Y-18592026D01*
X32081347Y-18992026D02*
X32081347Y-18868281D01*
X31957602Y-18868281D01*
X31957602Y-18992026D01*
X32081347Y-18992026D01*
X32081347Y-19392026D02*
X32081347Y-19268281D01*
X31957602Y-19268281D01*
X31957602Y-19392026D01*
X32081347Y-19392026D01*
X32081347Y-19792026D02*
X32081347Y-19668281D01*
X31957602Y-19668281D01*
X31957602Y-19792026D01*
X32081347Y-19792026D01*
X32481347Y-17192026D02*
X32481347Y-17068281D01*
X32357602Y-17068281D01*
X32357602Y-17192026D01*
X32481347Y-17192026D01*
X32481347Y-17592026D02*
X32481347Y-17468281D01*
X32357602Y-17468281D01*
X32357602Y-17592026D01*
X32481347Y-17592026D01*
X32481347Y-17992026D02*
X32481347Y-17868281D01*
X32357602Y-17868281D01*
X32357602Y-17992026D01*
X32481347Y-17992026D01*
X32481347Y-18392026D02*
X32481347Y-18268281D01*
X32357602Y-18268281D01*
X32357602Y-18392026D01*
X32481347Y-18392026D01*
X32481347Y-18792026D02*
X32481347Y-18668281D01*
X32357602Y-18668281D01*
X32357602Y-18792026D01*
X32481347Y-18792026D01*
X32481347Y-19192026D02*
X32481347Y-19068281D01*
X32357602Y-19068281D01*
X32357602Y-19192026D01*
X32481347Y-19192026D01*
X32481347Y-19592026D02*
X32481347Y-19468281D01*
X32357602Y-19468281D01*
X32357602Y-19592026D01*
X32481347Y-19592026D01*
X32881347Y-16992026D02*
X32881347Y-16868281D01*
X32757602Y-16868281D01*
X32757602Y-16992026D01*
X32881347Y-16992026D01*
X32881347Y-17392026D02*
X32881347Y-17268281D01*
X32757602Y-17268281D01*
X32757602Y-17392026D01*
X32881347Y-17392026D01*
X32881347Y-17792026D02*
X32881347Y-17668281D01*
X32757602Y-17668281D01*
X32757602Y-17792026D01*
X32881347Y-17792026D01*
X32881347Y-18192026D02*
X32881347Y-18068281D01*
X32757602Y-18068281D01*
X32757602Y-18192026D01*
X32881347Y-18192026D01*
X32881347Y-18592026D02*
X32881347Y-18468281D01*
X32757602Y-18468281D01*
X32757602Y-18592026D01*
X32881347Y-18592026D01*
X32881347Y-18992026D02*
X32881347Y-18868281D01*
X32757602Y-18868281D01*
X32757602Y-18992026D01*
X32881347Y-18992026D01*
X32881347Y-19392026D02*
X32881347Y-19268281D01*
X32757602Y-19268281D01*
X32757602Y-19392026D01*
X32881347Y-19392026D01*
X32881347Y-19792026D02*
X32881347Y-19668281D01*
X32757602Y-19668281D01*
X32757602Y-19792026D01*
X32881347Y-19792026D01*
D11*
X13774762Y-22946149D02*
X13774762Y-22746149D01*
X13774762Y-22746149D02*
X13822381Y-22746149D01*
X13822381Y-22746149D02*
X13850952Y-22755673D01*
X13850952Y-22755673D02*
X13870000Y-22774720D01*
X13870000Y-22774720D02*
X13879524Y-22793768D01*
X13879524Y-22793768D02*
X13889047Y-22831863D01*
X13889047Y-22831863D02*
X13889047Y-22860435D01*
X13889047Y-22860435D02*
X13879524Y-22898530D01*
X13879524Y-22898530D02*
X13870000Y-22917577D01*
X13870000Y-22917577D02*
X13850952Y-22936625D01*
X13850952Y-22936625D02*
X13822381Y-22946149D01*
X13822381Y-22946149D02*
X13774762Y-22946149D01*
X13974762Y-22946149D02*
X13974762Y-22812815D01*
X13974762Y-22850911D02*
X13984285Y-22831863D01*
X13984285Y-22831863D02*
X13993809Y-22822339D01*
X13993809Y-22822339D02*
X14012857Y-22812815D01*
X14012857Y-22812815D02*
X14031905Y-22812815D01*
X14098571Y-22946149D02*
X14098571Y-22812815D01*
X14098571Y-22746149D02*
X14089047Y-22755673D01*
X14089047Y-22755673D02*
X14098571Y-22765196D01*
X14098571Y-22765196D02*
X14108095Y-22755673D01*
X14108095Y-22755673D02*
X14098571Y-22746149D01*
X14098571Y-22746149D02*
X14098571Y-22765196D01*
X14222381Y-22946149D02*
X14203333Y-22936625D01*
X14203333Y-22936625D02*
X14193809Y-22917577D01*
X14193809Y-22917577D02*
X14193809Y-22746149D01*
X14327143Y-22946149D02*
X14308095Y-22936625D01*
X14308095Y-22936625D02*
X14298571Y-22917577D01*
X14298571Y-22917577D02*
X14298571Y-22746149D01*
X14555714Y-22946149D02*
X14555714Y-22746149D01*
X14555714Y-22746149D02*
X14622381Y-22889006D01*
X14622381Y-22889006D02*
X14689047Y-22746149D01*
X14689047Y-22746149D02*
X14689047Y-22946149D01*
X14870000Y-22946149D02*
X14870000Y-22841387D01*
X14870000Y-22841387D02*
X14860476Y-22822339D01*
X14860476Y-22822339D02*
X14841428Y-22812815D01*
X14841428Y-22812815D02*
X14803333Y-22812815D01*
X14803333Y-22812815D02*
X14784285Y-22822339D01*
X14870000Y-22936625D02*
X14850952Y-22946149D01*
X14850952Y-22946149D02*
X14803333Y-22946149D01*
X14803333Y-22946149D02*
X14784285Y-22936625D01*
X14784285Y-22936625D02*
X14774762Y-22917577D01*
X14774762Y-22917577D02*
X14774762Y-22898530D01*
X14774762Y-22898530D02*
X14784285Y-22879482D01*
X14784285Y-22879482D02*
X14803333Y-22869958D01*
X14803333Y-22869958D02*
X14850952Y-22869958D01*
X14850952Y-22869958D02*
X14870000Y-22860435D01*
X14965238Y-22812815D02*
X14965238Y-23012815D01*
X14965238Y-22822339D02*
X14984285Y-22812815D01*
X14984285Y-22812815D02*
X15022381Y-22812815D01*
X15022381Y-22812815D02*
X15041428Y-22822339D01*
X15041428Y-22822339D02*
X15050952Y-22831863D01*
X15050952Y-22831863D02*
X15060476Y-22850911D01*
X15060476Y-22850911D02*
X15060476Y-22908054D01*
X15060476Y-22908054D02*
X15050952Y-22927101D01*
X15050952Y-22927101D02*
X15041428Y-22936625D01*
X15041428Y-22936625D02*
X15022381Y-22946149D01*
X15022381Y-22946149D02*
X14984285Y-22946149D01*
X14984285Y-22946149D02*
X14965238Y-22936625D01*
X15146190Y-22927101D02*
X15155714Y-22936625D01*
X15155714Y-22936625D02*
X15146190Y-22946149D01*
X15146190Y-22946149D02*
X15136666Y-22936625D01*
X15136666Y-22936625D02*
X15146190Y-22927101D01*
X15146190Y-22927101D02*
X15146190Y-22946149D01*
X15146190Y-22822339D02*
X15155714Y-22831863D01*
X15155714Y-22831863D02*
X15146190Y-22841387D01*
X15146190Y-22841387D02*
X15136666Y-22831863D01*
X15136666Y-22831863D02*
X15146190Y-22822339D01*
X15146190Y-22822339D02*
X15146190Y-22841387D01*
D10*
X13473985Y-23254665D02*
X13513985Y-23294665D01*
X13513985Y-23254665D02*
X13473985Y-23294665D01*
D11*
X13812857Y-23166149D02*
X13831905Y-23166149D01*
X13831905Y-23166149D02*
X13850952Y-23175673D01*
X13850952Y-23175673D02*
X13860476Y-23185196D01*
X13860476Y-23185196D02*
X13870000Y-23204244D01*
X13870000Y-23204244D02*
X13879524Y-23242339D01*
X13879524Y-23242339D02*
X13879524Y-23289958D01*
X13879524Y-23289958D02*
X13870000Y-23328054D01*
X13870000Y-23328054D02*
X13860476Y-23347101D01*
X13860476Y-23347101D02*
X13850952Y-23356625D01*
X13850952Y-23356625D02*
X13831905Y-23366149D01*
X13831905Y-23366149D02*
X13812857Y-23366149D01*
X13812857Y-23366149D02*
X13793809Y-23356625D01*
X13793809Y-23356625D02*
X13784285Y-23347101D01*
X13784285Y-23347101D02*
X13774762Y-23328054D01*
X13774762Y-23328054D02*
X13765238Y-23289958D01*
X13765238Y-23289958D02*
X13765238Y-23242339D01*
X13765238Y-23242339D02*
X13774762Y-23204244D01*
X13774762Y-23204244D02*
X13784285Y-23185196D01*
X13784285Y-23185196D02*
X13793809Y-23175673D01*
X13793809Y-23175673D02*
X13812857Y-23166149D01*
X13965238Y-23347101D02*
X13974762Y-23356625D01*
X13974762Y-23356625D02*
X13965238Y-23366149D01*
X13965238Y-23366149D02*
X13955714Y-23356625D01*
X13955714Y-23356625D02*
X13965238Y-23347101D01*
X13965238Y-23347101D02*
X13965238Y-23366149D01*
X14146190Y-23232815D02*
X14146190Y-23366149D01*
X14098571Y-23156625D02*
X14050952Y-23299482D01*
X14050952Y-23299482D02*
X14174762Y-23299482D01*
X14289047Y-23166149D02*
X14308095Y-23166149D01*
X14308095Y-23166149D02*
X14327143Y-23175673D01*
X14327143Y-23175673D02*
X14336666Y-23185196D01*
X14336666Y-23185196D02*
X14346190Y-23204244D01*
X14346190Y-23204244D02*
X14355714Y-23242339D01*
X14355714Y-23242339D02*
X14355714Y-23289958D01*
X14355714Y-23289958D02*
X14346190Y-23328054D01*
X14346190Y-23328054D02*
X14336666Y-23347101D01*
X14336666Y-23347101D02*
X14327143Y-23356625D01*
X14327143Y-23356625D02*
X14308095Y-23366149D01*
X14308095Y-23366149D02*
X14289047Y-23366149D01*
X14289047Y-23366149D02*
X14270000Y-23356625D01*
X14270000Y-23356625D02*
X14260476Y-23347101D01*
X14260476Y-23347101D02*
X14250952Y-23328054D01*
X14250952Y-23328054D02*
X14241428Y-23289958D01*
X14241428Y-23289958D02*
X14241428Y-23242339D01*
X14241428Y-23242339D02*
X14250952Y-23204244D01*
X14250952Y-23204244D02*
X14260476Y-23185196D01*
X14260476Y-23185196D02*
X14270000Y-23175673D01*
X14270000Y-23175673D02*
X14289047Y-23166149D01*
X14479524Y-23166149D02*
X14498571Y-23166149D01*
X14498571Y-23166149D02*
X14517619Y-23175673D01*
X14517619Y-23175673D02*
X14527143Y-23185196D01*
X14527143Y-23185196D02*
X14536666Y-23204244D01*
X14536666Y-23204244D02*
X14546190Y-23242339D01*
X14546190Y-23242339D02*
X14546190Y-23289958D01*
X14546190Y-23289958D02*
X14536666Y-23328054D01*
X14536666Y-23328054D02*
X14527143Y-23347101D01*
X14527143Y-23347101D02*
X14517619Y-23356625D01*
X14517619Y-23356625D02*
X14498571Y-23366149D01*
X14498571Y-23366149D02*
X14479524Y-23366149D01*
X14479524Y-23366149D02*
X14460476Y-23356625D01*
X14460476Y-23356625D02*
X14450952Y-23347101D01*
X14450952Y-23347101D02*
X14441428Y-23328054D01*
X14441428Y-23328054D02*
X14431905Y-23289958D01*
X14431905Y-23289958D02*
X14431905Y-23242339D01*
X14431905Y-23242339D02*
X14441428Y-23204244D01*
X14441428Y-23204244D02*
X14450952Y-23185196D01*
X14450952Y-23185196D02*
X14460476Y-23175673D01*
X14460476Y-23175673D02*
X14479524Y-23166149D01*
X14631905Y-23366149D02*
X14631905Y-23232815D01*
X14631905Y-23251863D02*
X14641428Y-23242339D01*
X14641428Y-23242339D02*
X14660476Y-23232815D01*
X14660476Y-23232815D02*
X14689047Y-23232815D01*
X14689047Y-23232815D02*
X14708095Y-23242339D01*
X14708095Y-23242339D02*
X14717619Y-23261387D01*
X14717619Y-23261387D02*
X14717619Y-23366149D01*
X14717619Y-23261387D02*
X14727143Y-23242339D01*
X14727143Y-23242339D02*
X14746190Y-23232815D01*
X14746190Y-23232815D02*
X14774762Y-23232815D01*
X14774762Y-23232815D02*
X14793809Y-23242339D01*
X14793809Y-23242339D02*
X14803333Y-23261387D01*
X14803333Y-23261387D02*
X14803333Y-23366149D01*
X14898571Y-23366149D02*
X14898571Y-23232815D01*
X14898571Y-23251863D02*
X14908095Y-23242339D01*
X14908095Y-23242339D02*
X14927143Y-23232815D01*
X14927143Y-23232815D02*
X14955714Y-23232815D01*
X14955714Y-23232815D02*
X14974762Y-23242339D01*
X14974762Y-23242339D02*
X14984286Y-23261387D01*
X14984286Y-23261387D02*
X14984286Y-23366149D01*
X14984286Y-23261387D02*
X14993809Y-23242339D01*
X14993809Y-23242339D02*
X15012857Y-23232815D01*
X15012857Y-23232815D02*
X15041428Y-23232815D01*
X15041428Y-23232815D02*
X15060476Y-23242339D01*
X15060476Y-23242339D02*
X15070000Y-23261387D01*
X15070000Y-23261387D02*
X15070000Y-23366149D01*
X15460476Y-23156625D02*
X15289048Y-23413768D01*
X15717619Y-23166149D02*
X15736667Y-23166149D01*
X15736667Y-23166149D02*
X15755714Y-23175673D01*
X15755714Y-23175673D02*
X15765238Y-23185196D01*
X15765238Y-23185196D02*
X15774762Y-23204244D01*
X15774762Y-23204244D02*
X15784286Y-23242339D01*
X15784286Y-23242339D02*
X15784286Y-23289958D01*
X15784286Y-23289958D02*
X15774762Y-23328054D01*
X15774762Y-23328054D02*
X15765238Y-23347101D01*
X15765238Y-23347101D02*
X15755714Y-23356625D01*
X15755714Y-23356625D02*
X15736667Y-23366149D01*
X15736667Y-23366149D02*
X15717619Y-23366149D01*
X15717619Y-23366149D02*
X15698571Y-23356625D01*
X15698571Y-23356625D02*
X15689048Y-23347101D01*
X15689048Y-23347101D02*
X15679524Y-23328054D01*
X15679524Y-23328054D02*
X15670000Y-23289958D01*
X15670000Y-23289958D02*
X15670000Y-23242339D01*
X15670000Y-23242339D02*
X15679524Y-23204244D01*
X15679524Y-23204244D02*
X15689048Y-23185196D01*
X15689048Y-23185196D02*
X15698571Y-23175673D01*
X15698571Y-23175673D02*
X15717619Y-23166149D01*
X15870000Y-23347101D02*
X15879524Y-23356625D01*
X15879524Y-23356625D02*
X15870000Y-23366149D01*
X15870000Y-23366149D02*
X15860476Y-23356625D01*
X15860476Y-23356625D02*
X15870000Y-23347101D01*
X15870000Y-23347101D02*
X15870000Y-23366149D01*
X16003333Y-23166149D02*
X16022381Y-23166149D01*
X16022381Y-23166149D02*
X16041429Y-23175673D01*
X16041429Y-23175673D02*
X16050952Y-23185196D01*
X16050952Y-23185196D02*
X16060476Y-23204244D01*
X16060476Y-23204244D02*
X16070000Y-23242339D01*
X16070000Y-23242339D02*
X16070000Y-23289958D01*
X16070000Y-23289958D02*
X16060476Y-23328054D01*
X16060476Y-23328054D02*
X16050952Y-23347101D01*
X16050952Y-23347101D02*
X16041429Y-23356625D01*
X16041429Y-23356625D02*
X16022381Y-23366149D01*
X16022381Y-23366149D02*
X16003333Y-23366149D01*
X16003333Y-23366149D02*
X15984286Y-23356625D01*
X15984286Y-23356625D02*
X15974762Y-23347101D01*
X15974762Y-23347101D02*
X15965238Y-23328054D01*
X15965238Y-23328054D02*
X15955714Y-23289958D01*
X15955714Y-23289958D02*
X15955714Y-23242339D01*
X15955714Y-23242339D02*
X15965238Y-23204244D01*
X15965238Y-23204244D02*
X15974762Y-23185196D01*
X15974762Y-23185196D02*
X15984286Y-23175673D01*
X15984286Y-23175673D02*
X16003333Y-23166149D01*
X16260476Y-23366149D02*
X16146190Y-23366149D01*
X16203333Y-23366149D02*
X16203333Y-23166149D01*
X16203333Y-23166149D02*
X16184286Y-23194720D01*
X16184286Y-23194720D02*
X16165238Y-23213768D01*
X16165238Y-23213768D02*
X16146190Y-23223292D01*
X16441429Y-23166149D02*
X16346190Y-23166149D01*
X16346190Y-23166149D02*
X16336667Y-23261387D01*
X16336667Y-23261387D02*
X16346190Y-23251863D01*
X16346190Y-23251863D02*
X16365238Y-23242339D01*
X16365238Y-23242339D02*
X16412857Y-23242339D01*
X16412857Y-23242339D02*
X16431905Y-23251863D01*
X16431905Y-23251863D02*
X16441429Y-23261387D01*
X16441429Y-23261387D02*
X16450952Y-23280435D01*
X16450952Y-23280435D02*
X16450952Y-23328054D01*
X16450952Y-23328054D02*
X16441429Y-23347101D01*
X16441429Y-23347101D02*
X16431905Y-23356625D01*
X16431905Y-23356625D02*
X16412857Y-23366149D01*
X16412857Y-23366149D02*
X16365238Y-23366149D01*
X16365238Y-23366149D02*
X16346190Y-23356625D01*
X16346190Y-23356625D02*
X16336667Y-23347101D01*
X16517619Y-23166149D02*
X16650952Y-23166149D01*
X16650952Y-23166149D02*
X16565238Y-23366149D01*
X16717619Y-23166149D02*
X16717619Y-23204244D01*
X16793810Y-23166149D02*
X16793810Y-23204244D01*
X17089048Y-23442339D02*
X17079524Y-23432815D01*
X17079524Y-23432815D02*
X17060476Y-23404244D01*
X17060476Y-23404244D02*
X17050953Y-23385196D01*
X17050953Y-23385196D02*
X17041429Y-23356625D01*
X17041429Y-23356625D02*
X17031905Y-23309006D01*
X17031905Y-23309006D02*
X17031905Y-23270911D01*
X17031905Y-23270911D02*
X17041429Y-23223292D01*
X17041429Y-23223292D02*
X17050953Y-23194720D01*
X17050953Y-23194720D02*
X17060476Y-23175673D01*
X17060476Y-23175673D02*
X17079524Y-23147101D01*
X17079524Y-23147101D02*
X17089048Y-23137577D01*
X17155714Y-23185196D02*
X17165238Y-23175673D01*
X17165238Y-23175673D02*
X17184286Y-23166149D01*
X17184286Y-23166149D02*
X17231905Y-23166149D01*
X17231905Y-23166149D02*
X17250953Y-23175673D01*
X17250953Y-23175673D02*
X17260476Y-23185196D01*
X17260476Y-23185196D02*
X17270000Y-23204244D01*
X17270000Y-23204244D02*
X17270000Y-23223292D01*
X17270000Y-23223292D02*
X17260476Y-23251863D01*
X17260476Y-23251863D02*
X17146191Y-23366149D01*
X17146191Y-23366149D02*
X17270000Y-23366149D01*
X17460476Y-23366149D02*
X17346191Y-23366149D01*
X17403333Y-23366149D02*
X17403333Y-23166149D01*
X17403333Y-23166149D02*
X17384286Y-23194720D01*
X17384286Y-23194720D02*
X17365238Y-23213768D01*
X17365238Y-23213768D02*
X17346191Y-23223292D01*
X17584286Y-23166149D02*
X17603334Y-23166149D01*
X17603334Y-23166149D02*
X17622381Y-23175673D01*
X17622381Y-23175673D02*
X17631905Y-23185196D01*
X17631905Y-23185196D02*
X17641429Y-23204244D01*
X17641429Y-23204244D02*
X17650953Y-23242339D01*
X17650953Y-23242339D02*
X17650953Y-23289958D01*
X17650953Y-23289958D02*
X17641429Y-23328054D01*
X17641429Y-23328054D02*
X17631905Y-23347101D01*
X17631905Y-23347101D02*
X17622381Y-23356625D01*
X17622381Y-23356625D02*
X17603334Y-23366149D01*
X17603334Y-23366149D02*
X17584286Y-23366149D01*
X17584286Y-23366149D02*
X17565238Y-23356625D01*
X17565238Y-23356625D02*
X17555714Y-23347101D01*
X17555714Y-23347101D02*
X17546191Y-23328054D01*
X17546191Y-23328054D02*
X17536667Y-23289958D01*
X17536667Y-23289958D02*
X17536667Y-23242339D01*
X17536667Y-23242339D02*
X17546191Y-23204244D01*
X17546191Y-23204244D02*
X17555714Y-23185196D01*
X17555714Y-23185196D02*
X17565238Y-23175673D01*
X17565238Y-23175673D02*
X17584286Y-23166149D01*
X17889048Y-23366149D02*
X17889048Y-23166149D01*
X17974762Y-23366149D02*
X17974762Y-23261387D01*
X17974762Y-23261387D02*
X17965238Y-23242339D01*
X17965238Y-23242339D02*
X17946191Y-23232815D01*
X17946191Y-23232815D02*
X17917619Y-23232815D01*
X17917619Y-23232815D02*
X17898572Y-23242339D01*
X17898572Y-23242339D02*
X17889048Y-23251863D01*
X18098572Y-23366149D02*
X18079524Y-23356625D01*
X18079524Y-23356625D02*
X18070000Y-23347101D01*
X18070000Y-23347101D02*
X18060476Y-23328054D01*
X18060476Y-23328054D02*
X18060476Y-23270911D01*
X18060476Y-23270911D02*
X18070000Y-23251863D01*
X18070000Y-23251863D02*
X18079524Y-23242339D01*
X18079524Y-23242339D02*
X18098572Y-23232815D01*
X18098572Y-23232815D02*
X18127143Y-23232815D01*
X18127143Y-23232815D02*
X18146191Y-23242339D01*
X18146191Y-23242339D02*
X18155715Y-23251863D01*
X18155715Y-23251863D02*
X18165238Y-23270911D01*
X18165238Y-23270911D02*
X18165238Y-23328054D01*
X18165238Y-23328054D02*
X18155715Y-23347101D01*
X18155715Y-23347101D02*
X18146191Y-23356625D01*
X18146191Y-23356625D02*
X18127143Y-23366149D01*
X18127143Y-23366149D02*
X18098572Y-23366149D01*
X18279524Y-23366149D02*
X18260476Y-23356625D01*
X18260476Y-23356625D02*
X18250953Y-23337577D01*
X18250953Y-23337577D02*
X18250953Y-23166149D01*
X18431905Y-23356625D02*
X18412857Y-23366149D01*
X18412857Y-23366149D02*
X18374762Y-23366149D01*
X18374762Y-23366149D02*
X18355715Y-23356625D01*
X18355715Y-23356625D02*
X18346191Y-23337577D01*
X18346191Y-23337577D02*
X18346191Y-23261387D01*
X18346191Y-23261387D02*
X18355715Y-23242339D01*
X18355715Y-23242339D02*
X18374762Y-23232815D01*
X18374762Y-23232815D02*
X18412857Y-23232815D01*
X18412857Y-23232815D02*
X18431905Y-23242339D01*
X18431905Y-23242339D02*
X18441429Y-23261387D01*
X18441429Y-23261387D02*
X18441429Y-23280435D01*
X18441429Y-23280435D02*
X18346191Y-23299482D01*
X18517619Y-23356625D02*
X18536667Y-23366149D01*
X18536667Y-23366149D02*
X18574762Y-23366149D01*
X18574762Y-23366149D02*
X18593810Y-23356625D01*
X18593810Y-23356625D02*
X18603334Y-23337577D01*
X18603334Y-23337577D02*
X18603334Y-23328054D01*
X18603334Y-23328054D02*
X18593810Y-23309006D01*
X18593810Y-23309006D02*
X18574762Y-23299482D01*
X18574762Y-23299482D02*
X18546191Y-23299482D01*
X18546191Y-23299482D02*
X18527143Y-23289958D01*
X18527143Y-23289958D02*
X18517619Y-23270911D01*
X18517619Y-23270911D02*
X18517619Y-23261387D01*
X18517619Y-23261387D02*
X18527143Y-23242339D01*
X18527143Y-23242339D02*
X18546191Y-23232815D01*
X18546191Y-23232815D02*
X18574762Y-23232815D01*
X18574762Y-23232815D02*
X18593810Y-23242339D01*
X18670000Y-23442339D02*
X18679524Y-23432815D01*
X18679524Y-23432815D02*
X18698572Y-23404244D01*
X18698572Y-23404244D02*
X18708096Y-23385196D01*
X18708096Y-23385196D02*
X18717619Y-23356625D01*
X18717619Y-23356625D02*
X18727143Y-23309006D01*
X18727143Y-23309006D02*
X18727143Y-23270911D01*
X18727143Y-23270911D02*
X18717619Y-23223292D01*
X18717619Y-23223292D02*
X18708096Y-23194720D01*
X18708096Y-23194720D02*
X18698572Y-23175673D01*
X18698572Y-23175673D02*
X18679524Y-23147101D01*
X18679524Y-23147101D02*
X18670000Y-23137577D01*
D10*
X13513985Y-23538665D02*
G75*
G02*
X13438985Y-23538665I-37500J0D01*
G01*
X13438985Y-23538665D02*
G75*
G02*
X13513985Y-23538665I37500J0D01*
G01*
D11*
X13812857Y-23430149D02*
X13831905Y-23430149D01*
X13831905Y-23430149D02*
X13850952Y-23439673D01*
X13850952Y-23439673D02*
X13860476Y-23449196D01*
X13860476Y-23449196D02*
X13870000Y-23468244D01*
X13870000Y-23468244D02*
X13879524Y-23506339D01*
X13879524Y-23506339D02*
X13879524Y-23553958D01*
X13879524Y-23553958D02*
X13870000Y-23592054D01*
X13870000Y-23592054D02*
X13860476Y-23611101D01*
X13860476Y-23611101D02*
X13850952Y-23620625D01*
X13850952Y-23620625D02*
X13831905Y-23630149D01*
X13831905Y-23630149D02*
X13812857Y-23630149D01*
X13812857Y-23630149D02*
X13793809Y-23620625D01*
X13793809Y-23620625D02*
X13784285Y-23611101D01*
X13784285Y-23611101D02*
X13774762Y-23592054D01*
X13774762Y-23592054D02*
X13765238Y-23553958D01*
X13765238Y-23553958D02*
X13765238Y-23506339D01*
X13765238Y-23506339D02*
X13774762Y-23468244D01*
X13774762Y-23468244D02*
X13784285Y-23449196D01*
X13784285Y-23449196D02*
X13793809Y-23439673D01*
X13793809Y-23439673D02*
X13812857Y-23430149D01*
X13965238Y-23611101D02*
X13974762Y-23620625D01*
X13974762Y-23620625D02*
X13965238Y-23630149D01*
X13965238Y-23630149D02*
X13955714Y-23620625D01*
X13955714Y-23620625D02*
X13965238Y-23611101D01*
X13965238Y-23611101D02*
X13965238Y-23630149D01*
X14041428Y-23430149D02*
X14174762Y-23430149D01*
X14174762Y-23430149D02*
X14089047Y-23630149D01*
X14346190Y-23430149D02*
X14250952Y-23430149D01*
X14250952Y-23430149D02*
X14241428Y-23525387D01*
X14241428Y-23525387D02*
X14250952Y-23515863D01*
X14250952Y-23515863D02*
X14270000Y-23506339D01*
X14270000Y-23506339D02*
X14317619Y-23506339D01*
X14317619Y-23506339D02*
X14336666Y-23515863D01*
X14336666Y-23515863D02*
X14346190Y-23525387D01*
X14346190Y-23525387D02*
X14355714Y-23544435D01*
X14355714Y-23544435D02*
X14355714Y-23592054D01*
X14355714Y-23592054D02*
X14346190Y-23611101D01*
X14346190Y-23611101D02*
X14336666Y-23620625D01*
X14336666Y-23620625D02*
X14317619Y-23630149D01*
X14317619Y-23630149D02*
X14270000Y-23630149D01*
X14270000Y-23630149D02*
X14250952Y-23620625D01*
X14250952Y-23620625D02*
X14241428Y-23611101D01*
X14479524Y-23430149D02*
X14498571Y-23430149D01*
X14498571Y-23430149D02*
X14517619Y-23439673D01*
X14517619Y-23439673D02*
X14527143Y-23449196D01*
X14527143Y-23449196D02*
X14536666Y-23468244D01*
X14536666Y-23468244D02*
X14546190Y-23506339D01*
X14546190Y-23506339D02*
X14546190Y-23553958D01*
X14546190Y-23553958D02*
X14536666Y-23592054D01*
X14536666Y-23592054D02*
X14527143Y-23611101D01*
X14527143Y-23611101D02*
X14517619Y-23620625D01*
X14517619Y-23620625D02*
X14498571Y-23630149D01*
X14498571Y-23630149D02*
X14479524Y-23630149D01*
X14479524Y-23630149D02*
X14460476Y-23620625D01*
X14460476Y-23620625D02*
X14450952Y-23611101D01*
X14450952Y-23611101D02*
X14441428Y-23592054D01*
X14441428Y-23592054D02*
X14431905Y-23553958D01*
X14431905Y-23553958D02*
X14431905Y-23506339D01*
X14431905Y-23506339D02*
X14441428Y-23468244D01*
X14441428Y-23468244D02*
X14450952Y-23449196D01*
X14450952Y-23449196D02*
X14460476Y-23439673D01*
X14460476Y-23439673D02*
X14479524Y-23430149D01*
X14631905Y-23630149D02*
X14631905Y-23496815D01*
X14631905Y-23515863D02*
X14641428Y-23506339D01*
X14641428Y-23506339D02*
X14660476Y-23496815D01*
X14660476Y-23496815D02*
X14689047Y-23496815D01*
X14689047Y-23496815D02*
X14708095Y-23506339D01*
X14708095Y-23506339D02*
X14717619Y-23525387D01*
X14717619Y-23525387D02*
X14717619Y-23630149D01*
X14717619Y-23525387D02*
X14727143Y-23506339D01*
X14727143Y-23506339D02*
X14746190Y-23496815D01*
X14746190Y-23496815D02*
X14774762Y-23496815D01*
X14774762Y-23496815D02*
X14793809Y-23506339D01*
X14793809Y-23506339D02*
X14803333Y-23525387D01*
X14803333Y-23525387D02*
X14803333Y-23630149D01*
X14898571Y-23630149D02*
X14898571Y-23496815D01*
X14898571Y-23515863D02*
X14908095Y-23506339D01*
X14908095Y-23506339D02*
X14927143Y-23496815D01*
X14927143Y-23496815D02*
X14955714Y-23496815D01*
X14955714Y-23496815D02*
X14974762Y-23506339D01*
X14974762Y-23506339D02*
X14984286Y-23525387D01*
X14984286Y-23525387D02*
X14984286Y-23630149D01*
X14984286Y-23525387D02*
X14993809Y-23506339D01*
X14993809Y-23506339D02*
X15012857Y-23496815D01*
X15012857Y-23496815D02*
X15041428Y-23496815D01*
X15041428Y-23496815D02*
X15060476Y-23506339D01*
X15060476Y-23506339D02*
X15070000Y-23525387D01*
X15070000Y-23525387D02*
X15070000Y-23630149D01*
X15460476Y-23420625D02*
X15289048Y-23677768D01*
X15717619Y-23430149D02*
X15736667Y-23430149D01*
X15736667Y-23430149D02*
X15755714Y-23439673D01*
X15755714Y-23439673D02*
X15765238Y-23449196D01*
X15765238Y-23449196D02*
X15774762Y-23468244D01*
X15774762Y-23468244D02*
X15784286Y-23506339D01*
X15784286Y-23506339D02*
X15784286Y-23553958D01*
X15784286Y-23553958D02*
X15774762Y-23592054D01*
X15774762Y-23592054D02*
X15765238Y-23611101D01*
X15765238Y-23611101D02*
X15755714Y-23620625D01*
X15755714Y-23620625D02*
X15736667Y-23630149D01*
X15736667Y-23630149D02*
X15717619Y-23630149D01*
X15717619Y-23630149D02*
X15698571Y-23620625D01*
X15698571Y-23620625D02*
X15689048Y-23611101D01*
X15689048Y-23611101D02*
X15679524Y-23592054D01*
X15679524Y-23592054D02*
X15670000Y-23553958D01*
X15670000Y-23553958D02*
X15670000Y-23506339D01*
X15670000Y-23506339D02*
X15679524Y-23468244D01*
X15679524Y-23468244D02*
X15689048Y-23449196D01*
X15689048Y-23449196D02*
X15698571Y-23439673D01*
X15698571Y-23439673D02*
X15717619Y-23430149D01*
X15870000Y-23611101D02*
X15879524Y-23620625D01*
X15879524Y-23620625D02*
X15870000Y-23630149D01*
X15870000Y-23630149D02*
X15860476Y-23620625D01*
X15860476Y-23620625D02*
X15870000Y-23611101D01*
X15870000Y-23611101D02*
X15870000Y-23630149D01*
X16003333Y-23430149D02*
X16022381Y-23430149D01*
X16022381Y-23430149D02*
X16041429Y-23439673D01*
X16041429Y-23439673D02*
X16050952Y-23449196D01*
X16050952Y-23449196D02*
X16060476Y-23468244D01*
X16060476Y-23468244D02*
X16070000Y-23506339D01*
X16070000Y-23506339D02*
X16070000Y-23553958D01*
X16070000Y-23553958D02*
X16060476Y-23592054D01*
X16060476Y-23592054D02*
X16050952Y-23611101D01*
X16050952Y-23611101D02*
X16041429Y-23620625D01*
X16041429Y-23620625D02*
X16022381Y-23630149D01*
X16022381Y-23630149D02*
X16003333Y-23630149D01*
X16003333Y-23630149D02*
X15984286Y-23620625D01*
X15984286Y-23620625D02*
X15974762Y-23611101D01*
X15974762Y-23611101D02*
X15965238Y-23592054D01*
X15965238Y-23592054D02*
X15955714Y-23553958D01*
X15955714Y-23553958D02*
X15955714Y-23506339D01*
X15955714Y-23506339D02*
X15965238Y-23468244D01*
X15965238Y-23468244D02*
X15974762Y-23449196D01*
X15974762Y-23449196D02*
X15984286Y-23439673D01*
X15984286Y-23439673D02*
X16003333Y-23430149D01*
X16146190Y-23449196D02*
X16155714Y-23439673D01*
X16155714Y-23439673D02*
X16174762Y-23430149D01*
X16174762Y-23430149D02*
X16222381Y-23430149D01*
X16222381Y-23430149D02*
X16241429Y-23439673D01*
X16241429Y-23439673D02*
X16250952Y-23449196D01*
X16250952Y-23449196D02*
X16260476Y-23468244D01*
X16260476Y-23468244D02*
X16260476Y-23487292D01*
X16260476Y-23487292D02*
X16250952Y-23515863D01*
X16250952Y-23515863D02*
X16136667Y-23630149D01*
X16136667Y-23630149D02*
X16260476Y-23630149D01*
X16355714Y-23630149D02*
X16393809Y-23630149D01*
X16393809Y-23630149D02*
X16412857Y-23620625D01*
X16412857Y-23620625D02*
X16422381Y-23611101D01*
X16422381Y-23611101D02*
X16441429Y-23582530D01*
X16441429Y-23582530D02*
X16450952Y-23544435D01*
X16450952Y-23544435D02*
X16450952Y-23468244D01*
X16450952Y-23468244D02*
X16441429Y-23449196D01*
X16441429Y-23449196D02*
X16431905Y-23439673D01*
X16431905Y-23439673D02*
X16412857Y-23430149D01*
X16412857Y-23430149D02*
X16374762Y-23430149D01*
X16374762Y-23430149D02*
X16355714Y-23439673D01*
X16355714Y-23439673D02*
X16346190Y-23449196D01*
X16346190Y-23449196D02*
X16336667Y-23468244D01*
X16336667Y-23468244D02*
X16336667Y-23515863D01*
X16336667Y-23515863D02*
X16346190Y-23534911D01*
X16346190Y-23534911D02*
X16355714Y-23544435D01*
X16355714Y-23544435D02*
X16374762Y-23553958D01*
X16374762Y-23553958D02*
X16412857Y-23553958D01*
X16412857Y-23553958D02*
X16431905Y-23544435D01*
X16431905Y-23544435D02*
X16441429Y-23534911D01*
X16441429Y-23534911D02*
X16450952Y-23515863D01*
X16631905Y-23430149D02*
X16536667Y-23430149D01*
X16536667Y-23430149D02*
X16527143Y-23525387D01*
X16527143Y-23525387D02*
X16536667Y-23515863D01*
X16536667Y-23515863D02*
X16555714Y-23506339D01*
X16555714Y-23506339D02*
X16603333Y-23506339D01*
X16603333Y-23506339D02*
X16622381Y-23515863D01*
X16622381Y-23515863D02*
X16631905Y-23525387D01*
X16631905Y-23525387D02*
X16641429Y-23544435D01*
X16641429Y-23544435D02*
X16641429Y-23592054D01*
X16641429Y-23592054D02*
X16631905Y-23611101D01*
X16631905Y-23611101D02*
X16622381Y-23620625D01*
X16622381Y-23620625D02*
X16603333Y-23630149D01*
X16603333Y-23630149D02*
X16555714Y-23630149D01*
X16555714Y-23630149D02*
X16536667Y-23620625D01*
X16536667Y-23620625D02*
X16527143Y-23611101D01*
X16717619Y-23430149D02*
X16717619Y-23468244D01*
X16793810Y-23430149D02*
X16793810Y-23468244D01*
X17089048Y-23706339D02*
X17079524Y-23696815D01*
X17079524Y-23696815D02*
X17060476Y-23668244D01*
X17060476Y-23668244D02*
X17050953Y-23649196D01*
X17050953Y-23649196D02*
X17041429Y-23620625D01*
X17041429Y-23620625D02*
X17031905Y-23573006D01*
X17031905Y-23573006D02*
X17031905Y-23534911D01*
X17031905Y-23534911D02*
X17041429Y-23487292D01*
X17041429Y-23487292D02*
X17050953Y-23458720D01*
X17050953Y-23458720D02*
X17060476Y-23439673D01*
X17060476Y-23439673D02*
X17079524Y-23411101D01*
X17079524Y-23411101D02*
X17089048Y-23401577D01*
X17155714Y-23449196D02*
X17165238Y-23439673D01*
X17165238Y-23439673D02*
X17184286Y-23430149D01*
X17184286Y-23430149D02*
X17231905Y-23430149D01*
X17231905Y-23430149D02*
X17250953Y-23439673D01*
X17250953Y-23439673D02*
X17260476Y-23449196D01*
X17260476Y-23449196D02*
X17270000Y-23468244D01*
X17270000Y-23468244D02*
X17270000Y-23487292D01*
X17270000Y-23487292D02*
X17260476Y-23515863D01*
X17260476Y-23515863D02*
X17146191Y-23630149D01*
X17146191Y-23630149D02*
X17270000Y-23630149D01*
X17336667Y-23430149D02*
X17460476Y-23430149D01*
X17460476Y-23430149D02*
X17393810Y-23506339D01*
X17393810Y-23506339D02*
X17422381Y-23506339D01*
X17422381Y-23506339D02*
X17441429Y-23515863D01*
X17441429Y-23515863D02*
X17450953Y-23525387D01*
X17450953Y-23525387D02*
X17460476Y-23544435D01*
X17460476Y-23544435D02*
X17460476Y-23592054D01*
X17460476Y-23592054D02*
X17450953Y-23611101D01*
X17450953Y-23611101D02*
X17441429Y-23620625D01*
X17441429Y-23620625D02*
X17422381Y-23630149D01*
X17422381Y-23630149D02*
X17365238Y-23630149D01*
X17365238Y-23630149D02*
X17346191Y-23620625D01*
X17346191Y-23620625D02*
X17336667Y-23611101D01*
X17698572Y-23630149D02*
X17698572Y-23430149D01*
X17784286Y-23630149D02*
X17784286Y-23525387D01*
X17784286Y-23525387D02*
X17774762Y-23506339D01*
X17774762Y-23506339D02*
X17755715Y-23496815D01*
X17755715Y-23496815D02*
X17727143Y-23496815D01*
X17727143Y-23496815D02*
X17708095Y-23506339D01*
X17708095Y-23506339D02*
X17698572Y-23515863D01*
X17908095Y-23630149D02*
X17889048Y-23620625D01*
X17889048Y-23620625D02*
X17879524Y-23611101D01*
X17879524Y-23611101D02*
X17870000Y-23592054D01*
X17870000Y-23592054D02*
X17870000Y-23534911D01*
X17870000Y-23534911D02*
X17879524Y-23515863D01*
X17879524Y-23515863D02*
X17889048Y-23506339D01*
X17889048Y-23506339D02*
X17908095Y-23496815D01*
X17908095Y-23496815D02*
X17936667Y-23496815D01*
X17936667Y-23496815D02*
X17955715Y-23506339D01*
X17955715Y-23506339D02*
X17965238Y-23515863D01*
X17965238Y-23515863D02*
X17974762Y-23534911D01*
X17974762Y-23534911D02*
X17974762Y-23592054D01*
X17974762Y-23592054D02*
X17965238Y-23611101D01*
X17965238Y-23611101D02*
X17955715Y-23620625D01*
X17955715Y-23620625D02*
X17936667Y-23630149D01*
X17936667Y-23630149D02*
X17908095Y-23630149D01*
X18089048Y-23630149D02*
X18070000Y-23620625D01*
X18070000Y-23620625D02*
X18060476Y-23601577D01*
X18060476Y-23601577D02*
X18060476Y-23430149D01*
X18241429Y-23620625D02*
X18222381Y-23630149D01*
X18222381Y-23630149D02*
X18184286Y-23630149D01*
X18184286Y-23630149D02*
X18165238Y-23620625D01*
X18165238Y-23620625D02*
X18155715Y-23601577D01*
X18155715Y-23601577D02*
X18155715Y-23525387D01*
X18155715Y-23525387D02*
X18165238Y-23506339D01*
X18165238Y-23506339D02*
X18184286Y-23496815D01*
X18184286Y-23496815D02*
X18222381Y-23496815D01*
X18222381Y-23496815D02*
X18241429Y-23506339D01*
X18241429Y-23506339D02*
X18250953Y-23525387D01*
X18250953Y-23525387D02*
X18250953Y-23544435D01*
X18250953Y-23544435D02*
X18155715Y-23563482D01*
X18327143Y-23620625D02*
X18346191Y-23630149D01*
X18346191Y-23630149D02*
X18384286Y-23630149D01*
X18384286Y-23630149D02*
X18403334Y-23620625D01*
X18403334Y-23620625D02*
X18412857Y-23601577D01*
X18412857Y-23601577D02*
X18412857Y-23592054D01*
X18412857Y-23592054D02*
X18403334Y-23573006D01*
X18403334Y-23573006D02*
X18384286Y-23563482D01*
X18384286Y-23563482D02*
X18355715Y-23563482D01*
X18355715Y-23563482D02*
X18336667Y-23553958D01*
X18336667Y-23553958D02*
X18327143Y-23534911D01*
X18327143Y-23534911D02*
X18327143Y-23525387D01*
X18327143Y-23525387D02*
X18336667Y-23506339D01*
X18336667Y-23506339D02*
X18355715Y-23496815D01*
X18355715Y-23496815D02*
X18384286Y-23496815D01*
X18384286Y-23496815D02*
X18403334Y-23506339D01*
X18479524Y-23706339D02*
X18489048Y-23696815D01*
X18489048Y-23696815D02*
X18508096Y-23668244D01*
X18508096Y-23668244D02*
X18517619Y-23649196D01*
X18517619Y-23649196D02*
X18527143Y-23620625D01*
X18527143Y-23620625D02*
X18536667Y-23573006D01*
X18536667Y-23573006D02*
X18536667Y-23534911D01*
X18536667Y-23534911D02*
X18527143Y-23487292D01*
X18527143Y-23487292D02*
X18517619Y-23458720D01*
X18517619Y-23458720D02*
X18508096Y-23439673D01*
X18508096Y-23439673D02*
X18489048Y-23411101D01*
X18489048Y-23411101D02*
X18479524Y-23401577D01*
D10*
X13463985Y-23752665D02*
X13463985Y-23852665D01*
X13413985Y-23802665D02*
X13513985Y-23802665D01*
D11*
X13879524Y-23894149D02*
X13765238Y-23894149D01*
X13822381Y-23894149D02*
X13822381Y-23694149D01*
X13822381Y-23694149D02*
X13803333Y-23722720D01*
X13803333Y-23722720D02*
X13784285Y-23741768D01*
X13784285Y-23741768D02*
X13765238Y-23751292D01*
X13965238Y-23875101D02*
X13974762Y-23884625D01*
X13974762Y-23884625D02*
X13965238Y-23894149D01*
X13965238Y-23894149D02*
X13955714Y-23884625D01*
X13955714Y-23884625D02*
X13965238Y-23875101D01*
X13965238Y-23875101D02*
X13965238Y-23894149D01*
X14098571Y-23694149D02*
X14117619Y-23694149D01*
X14117619Y-23694149D02*
X14136666Y-23703673D01*
X14136666Y-23703673D02*
X14146190Y-23713196D01*
X14146190Y-23713196D02*
X14155714Y-23732244D01*
X14155714Y-23732244D02*
X14165238Y-23770339D01*
X14165238Y-23770339D02*
X14165238Y-23817958D01*
X14165238Y-23817958D02*
X14155714Y-23856054D01*
X14155714Y-23856054D02*
X14146190Y-23875101D01*
X14146190Y-23875101D02*
X14136666Y-23884625D01*
X14136666Y-23884625D02*
X14117619Y-23894149D01*
X14117619Y-23894149D02*
X14098571Y-23894149D01*
X14098571Y-23894149D02*
X14079524Y-23884625D01*
X14079524Y-23884625D02*
X14070000Y-23875101D01*
X14070000Y-23875101D02*
X14060476Y-23856054D01*
X14060476Y-23856054D02*
X14050952Y-23817958D01*
X14050952Y-23817958D02*
X14050952Y-23770339D01*
X14050952Y-23770339D02*
X14060476Y-23732244D01*
X14060476Y-23732244D02*
X14070000Y-23713196D01*
X14070000Y-23713196D02*
X14079524Y-23703673D01*
X14079524Y-23703673D02*
X14098571Y-23694149D01*
X14289047Y-23694149D02*
X14308095Y-23694149D01*
X14308095Y-23694149D02*
X14327143Y-23703673D01*
X14327143Y-23703673D02*
X14336666Y-23713196D01*
X14336666Y-23713196D02*
X14346190Y-23732244D01*
X14346190Y-23732244D02*
X14355714Y-23770339D01*
X14355714Y-23770339D02*
X14355714Y-23817958D01*
X14355714Y-23817958D02*
X14346190Y-23856054D01*
X14346190Y-23856054D02*
X14336666Y-23875101D01*
X14336666Y-23875101D02*
X14327143Y-23884625D01*
X14327143Y-23884625D02*
X14308095Y-23894149D01*
X14308095Y-23894149D02*
X14289047Y-23894149D01*
X14289047Y-23894149D02*
X14270000Y-23884625D01*
X14270000Y-23884625D02*
X14260476Y-23875101D01*
X14260476Y-23875101D02*
X14250952Y-23856054D01*
X14250952Y-23856054D02*
X14241428Y-23817958D01*
X14241428Y-23817958D02*
X14241428Y-23770339D01*
X14241428Y-23770339D02*
X14250952Y-23732244D01*
X14250952Y-23732244D02*
X14260476Y-23713196D01*
X14260476Y-23713196D02*
X14270000Y-23703673D01*
X14270000Y-23703673D02*
X14289047Y-23694149D01*
X14479524Y-23694149D02*
X14498571Y-23694149D01*
X14498571Y-23694149D02*
X14517619Y-23703673D01*
X14517619Y-23703673D02*
X14527143Y-23713196D01*
X14527143Y-23713196D02*
X14536666Y-23732244D01*
X14536666Y-23732244D02*
X14546190Y-23770339D01*
X14546190Y-23770339D02*
X14546190Y-23817958D01*
X14546190Y-23817958D02*
X14536666Y-23856054D01*
X14536666Y-23856054D02*
X14527143Y-23875101D01*
X14527143Y-23875101D02*
X14517619Y-23884625D01*
X14517619Y-23884625D02*
X14498571Y-23894149D01*
X14498571Y-23894149D02*
X14479524Y-23894149D01*
X14479524Y-23894149D02*
X14460476Y-23884625D01*
X14460476Y-23884625D02*
X14450952Y-23875101D01*
X14450952Y-23875101D02*
X14441428Y-23856054D01*
X14441428Y-23856054D02*
X14431905Y-23817958D01*
X14431905Y-23817958D02*
X14431905Y-23770339D01*
X14431905Y-23770339D02*
X14441428Y-23732244D01*
X14441428Y-23732244D02*
X14450952Y-23713196D01*
X14450952Y-23713196D02*
X14460476Y-23703673D01*
X14460476Y-23703673D02*
X14479524Y-23694149D01*
X14631905Y-23894149D02*
X14631905Y-23760815D01*
X14631905Y-23779863D02*
X14641428Y-23770339D01*
X14641428Y-23770339D02*
X14660476Y-23760815D01*
X14660476Y-23760815D02*
X14689047Y-23760815D01*
X14689047Y-23760815D02*
X14708095Y-23770339D01*
X14708095Y-23770339D02*
X14717619Y-23789387D01*
X14717619Y-23789387D02*
X14717619Y-23894149D01*
X14717619Y-23789387D02*
X14727143Y-23770339D01*
X14727143Y-23770339D02*
X14746190Y-23760815D01*
X14746190Y-23760815D02*
X14774762Y-23760815D01*
X14774762Y-23760815D02*
X14793809Y-23770339D01*
X14793809Y-23770339D02*
X14803333Y-23789387D01*
X14803333Y-23789387D02*
X14803333Y-23894149D01*
X14898571Y-23894149D02*
X14898571Y-23760815D01*
X14898571Y-23779863D02*
X14908095Y-23770339D01*
X14908095Y-23770339D02*
X14927143Y-23760815D01*
X14927143Y-23760815D02*
X14955714Y-23760815D01*
X14955714Y-23760815D02*
X14974762Y-23770339D01*
X14974762Y-23770339D02*
X14984286Y-23789387D01*
X14984286Y-23789387D02*
X14984286Y-23894149D01*
X14984286Y-23789387D02*
X14993809Y-23770339D01*
X14993809Y-23770339D02*
X15012857Y-23760815D01*
X15012857Y-23760815D02*
X15041428Y-23760815D01*
X15041428Y-23760815D02*
X15060476Y-23770339D01*
X15060476Y-23770339D02*
X15070000Y-23789387D01*
X15070000Y-23789387D02*
X15070000Y-23894149D01*
X15460476Y-23684625D02*
X15289048Y-23941768D01*
X15717619Y-23694149D02*
X15736667Y-23694149D01*
X15736667Y-23694149D02*
X15755714Y-23703673D01*
X15755714Y-23703673D02*
X15765238Y-23713196D01*
X15765238Y-23713196D02*
X15774762Y-23732244D01*
X15774762Y-23732244D02*
X15784286Y-23770339D01*
X15784286Y-23770339D02*
X15784286Y-23817958D01*
X15784286Y-23817958D02*
X15774762Y-23856054D01*
X15774762Y-23856054D02*
X15765238Y-23875101D01*
X15765238Y-23875101D02*
X15755714Y-23884625D01*
X15755714Y-23884625D02*
X15736667Y-23894149D01*
X15736667Y-23894149D02*
X15717619Y-23894149D01*
X15717619Y-23894149D02*
X15698571Y-23884625D01*
X15698571Y-23884625D02*
X15689048Y-23875101D01*
X15689048Y-23875101D02*
X15679524Y-23856054D01*
X15679524Y-23856054D02*
X15670000Y-23817958D01*
X15670000Y-23817958D02*
X15670000Y-23770339D01*
X15670000Y-23770339D02*
X15679524Y-23732244D01*
X15679524Y-23732244D02*
X15689048Y-23713196D01*
X15689048Y-23713196D02*
X15698571Y-23703673D01*
X15698571Y-23703673D02*
X15717619Y-23694149D01*
X15870000Y-23875101D02*
X15879524Y-23884625D01*
X15879524Y-23884625D02*
X15870000Y-23894149D01*
X15870000Y-23894149D02*
X15860476Y-23884625D01*
X15860476Y-23884625D02*
X15870000Y-23875101D01*
X15870000Y-23875101D02*
X15870000Y-23894149D01*
X16003333Y-23694149D02*
X16022381Y-23694149D01*
X16022381Y-23694149D02*
X16041429Y-23703673D01*
X16041429Y-23703673D02*
X16050952Y-23713196D01*
X16050952Y-23713196D02*
X16060476Y-23732244D01*
X16060476Y-23732244D02*
X16070000Y-23770339D01*
X16070000Y-23770339D02*
X16070000Y-23817958D01*
X16070000Y-23817958D02*
X16060476Y-23856054D01*
X16060476Y-23856054D02*
X16050952Y-23875101D01*
X16050952Y-23875101D02*
X16041429Y-23884625D01*
X16041429Y-23884625D02*
X16022381Y-23894149D01*
X16022381Y-23894149D02*
X16003333Y-23894149D01*
X16003333Y-23894149D02*
X15984286Y-23884625D01*
X15984286Y-23884625D02*
X15974762Y-23875101D01*
X15974762Y-23875101D02*
X15965238Y-23856054D01*
X15965238Y-23856054D02*
X15955714Y-23817958D01*
X15955714Y-23817958D02*
X15955714Y-23770339D01*
X15955714Y-23770339D02*
X15965238Y-23732244D01*
X15965238Y-23732244D02*
X15974762Y-23713196D01*
X15974762Y-23713196D02*
X15984286Y-23703673D01*
X15984286Y-23703673D02*
X16003333Y-23694149D01*
X16136667Y-23694149D02*
X16260476Y-23694149D01*
X16260476Y-23694149D02*
X16193809Y-23770339D01*
X16193809Y-23770339D02*
X16222381Y-23770339D01*
X16222381Y-23770339D02*
X16241429Y-23779863D01*
X16241429Y-23779863D02*
X16250952Y-23789387D01*
X16250952Y-23789387D02*
X16260476Y-23808435D01*
X16260476Y-23808435D02*
X16260476Y-23856054D01*
X16260476Y-23856054D02*
X16250952Y-23875101D01*
X16250952Y-23875101D02*
X16241429Y-23884625D01*
X16241429Y-23884625D02*
X16222381Y-23894149D01*
X16222381Y-23894149D02*
X16165238Y-23894149D01*
X16165238Y-23894149D02*
X16146190Y-23884625D01*
X16146190Y-23884625D02*
X16136667Y-23875101D01*
X16355714Y-23894149D02*
X16393809Y-23894149D01*
X16393809Y-23894149D02*
X16412857Y-23884625D01*
X16412857Y-23884625D02*
X16422381Y-23875101D01*
X16422381Y-23875101D02*
X16441429Y-23846530D01*
X16441429Y-23846530D02*
X16450952Y-23808435D01*
X16450952Y-23808435D02*
X16450952Y-23732244D01*
X16450952Y-23732244D02*
X16441429Y-23713196D01*
X16441429Y-23713196D02*
X16431905Y-23703673D01*
X16431905Y-23703673D02*
X16412857Y-23694149D01*
X16412857Y-23694149D02*
X16374762Y-23694149D01*
X16374762Y-23694149D02*
X16355714Y-23703673D01*
X16355714Y-23703673D02*
X16346190Y-23713196D01*
X16346190Y-23713196D02*
X16336667Y-23732244D01*
X16336667Y-23732244D02*
X16336667Y-23779863D01*
X16336667Y-23779863D02*
X16346190Y-23798911D01*
X16346190Y-23798911D02*
X16355714Y-23808435D01*
X16355714Y-23808435D02*
X16374762Y-23817958D01*
X16374762Y-23817958D02*
X16412857Y-23817958D01*
X16412857Y-23817958D02*
X16431905Y-23808435D01*
X16431905Y-23808435D02*
X16441429Y-23798911D01*
X16441429Y-23798911D02*
X16450952Y-23779863D01*
X16622381Y-23760815D02*
X16622381Y-23894149D01*
X16574762Y-23684625D02*
X16527143Y-23827482D01*
X16527143Y-23827482D02*
X16650952Y-23827482D01*
X16717619Y-23694149D02*
X16717619Y-23732244D01*
X16793810Y-23694149D02*
X16793810Y-23732244D01*
X17089048Y-23970339D02*
X17079524Y-23960815D01*
X17079524Y-23960815D02*
X17060476Y-23932244D01*
X17060476Y-23932244D02*
X17050953Y-23913196D01*
X17050953Y-23913196D02*
X17041429Y-23884625D01*
X17041429Y-23884625D02*
X17031905Y-23837006D01*
X17031905Y-23837006D02*
X17031905Y-23798911D01*
X17031905Y-23798911D02*
X17041429Y-23751292D01*
X17041429Y-23751292D02*
X17050953Y-23722720D01*
X17050953Y-23722720D02*
X17060476Y-23703673D01*
X17060476Y-23703673D02*
X17079524Y-23675101D01*
X17079524Y-23675101D02*
X17089048Y-23665577D01*
X17193810Y-23779863D02*
X17174762Y-23770339D01*
X17174762Y-23770339D02*
X17165238Y-23760815D01*
X17165238Y-23760815D02*
X17155714Y-23741768D01*
X17155714Y-23741768D02*
X17155714Y-23732244D01*
X17155714Y-23732244D02*
X17165238Y-23713196D01*
X17165238Y-23713196D02*
X17174762Y-23703673D01*
X17174762Y-23703673D02*
X17193810Y-23694149D01*
X17193810Y-23694149D02*
X17231905Y-23694149D01*
X17231905Y-23694149D02*
X17250953Y-23703673D01*
X17250953Y-23703673D02*
X17260476Y-23713196D01*
X17260476Y-23713196D02*
X17270000Y-23732244D01*
X17270000Y-23732244D02*
X17270000Y-23741768D01*
X17270000Y-23741768D02*
X17260476Y-23760815D01*
X17260476Y-23760815D02*
X17250953Y-23770339D01*
X17250953Y-23770339D02*
X17231905Y-23779863D01*
X17231905Y-23779863D02*
X17193810Y-23779863D01*
X17193810Y-23779863D02*
X17174762Y-23789387D01*
X17174762Y-23789387D02*
X17165238Y-23798911D01*
X17165238Y-23798911D02*
X17155714Y-23817958D01*
X17155714Y-23817958D02*
X17155714Y-23856054D01*
X17155714Y-23856054D02*
X17165238Y-23875101D01*
X17165238Y-23875101D02*
X17174762Y-23884625D01*
X17174762Y-23884625D02*
X17193810Y-23894149D01*
X17193810Y-23894149D02*
X17231905Y-23894149D01*
X17231905Y-23894149D02*
X17250953Y-23884625D01*
X17250953Y-23884625D02*
X17260476Y-23875101D01*
X17260476Y-23875101D02*
X17270000Y-23856054D01*
X17270000Y-23856054D02*
X17270000Y-23817958D01*
X17270000Y-23817958D02*
X17260476Y-23798911D01*
X17260476Y-23798911D02*
X17250953Y-23789387D01*
X17250953Y-23789387D02*
X17231905Y-23779863D01*
X17508095Y-23894149D02*
X17508095Y-23694149D01*
X17593810Y-23894149D02*
X17593810Y-23789387D01*
X17593810Y-23789387D02*
X17584286Y-23770339D01*
X17584286Y-23770339D02*
X17565238Y-23760815D01*
X17565238Y-23760815D02*
X17536667Y-23760815D01*
X17536667Y-23760815D02*
X17517619Y-23770339D01*
X17517619Y-23770339D02*
X17508095Y-23779863D01*
X17717619Y-23894149D02*
X17698572Y-23884625D01*
X17698572Y-23884625D02*
X17689048Y-23875101D01*
X17689048Y-23875101D02*
X17679524Y-23856054D01*
X17679524Y-23856054D02*
X17679524Y-23798911D01*
X17679524Y-23798911D02*
X17689048Y-23779863D01*
X17689048Y-23779863D02*
X17698572Y-23770339D01*
X17698572Y-23770339D02*
X17717619Y-23760815D01*
X17717619Y-23760815D02*
X17746191Y-23760815D01*
X17746191Y-23760815D02*
X17765238Y-23770339D01*
X17765238Y-23770339D02*
X17774762Y-23779863D01*
X17774762Y-23779863D02*
X17784286Y-23798911D01*
X17784286Y-23798911D02*
X17784286Y-23856054D01*
X17784286Y-23856054D02*
X17774762Y-23875101D01*
X17774762Y-23875101D02*
X17765238Y-23884625D01*
X17765238Y-23884625D02*
X17746191Y-23894149D01*
X17746191Y-23894149D02*
X17717619Y-23894149D01*
X17898572Y-23894149D02*
X17879524Y-23884625D01*
X17879524Y-23884625D02*
X17870000Y-23865577D01*
X17870000Y-23865577D02*
X17870000Y-23694149D01*
X18050953Y-23884625D02*
X18031905Y-23894149D01*
X18031905Y-23894149D02*
X17993810Y-23894149D01*
X17993810Y-23894149D02*
X17974762Y-23884625D01*
X17974762Y-23884625D02*
X17965238Y-23865577D01*
X17965238Y-23865577D02*
X17965238Y-23789387D01*
X17965238Y-23789387D02*
X17974762Y-23770339D01*
X17974762Y-23770339D02*
X17993810Y-23760815D01*
X17993810Y-23760815D02*
X18031905Y-23760815D01*
X18031905Y-23760815D02*
X18050953Y-23770339D01*
X18050953Y-23770339D02*
X18060476Y-23789387D01*
X18060476Y-23789387D02*
X18060476Y-23808435D01*
X18060476Y-23808435D02*
X17965238Y-23827482D01*
X18136667Y-23884625D02*
X18155715Y-23894149D01*
X18155715Y-23894149D02*
X18193810Y-23894149D01*
X18193810Y-23894149D02*
X18212857Y-23884625D01*
X18212857Y-23884625D02*
X18222381Y-23865577D01*
X18222381Y-23865577D02*
X18222381Y-23856054D01*
X18222381Y-23856054D02*
X18212857Y-23837006D01*
X18212857Y-23837006D02*
X18193810Y-23827482D01*
X18193810Y-23827482D02*
X18165238Y-23827482D01*
X18165238Y-23827482D02*
X18146191Y-23817958D01*
X18146191Y-23817958D02*
X18136667Y-23798911D01*
X18136667Y-23798911D02*
X18136667Y-23789387D01*
X18136667Y-23789387D02*
X18146191Y-23770339D01*
X18146191Y-23770339D02*
X18165238Y-23760815D01*
X18165238Y-23760815D02*
X18193810Y-23760815D01*
X18193810Y-23760815D02*
X18212857Y-23770339D01*
X18289048Y-23970339D02*
X18298572Y-23960815D01*
X18298572Y-23960815D02*
X18317619Y-23932244D01*
X18317619Y-23932244D02*
X18327143Y-23913196D01*
X18327143Y-23913196D02*
X18336667Y-23884625D01*
X18336667Y-23884625D02*
X18346191Y-23837006D01*
X18346191Y-23837006D02*
X18346191Y-23798911D01*
X18346191Y-23798911D02*
X18336667Y-23751292D01*
X18336667Y-23751292D02*
X18327143Y-23722720D01*
X18327143Y-23722720D02*
X18317619Y-23703673D01*
X18317619Y-23703673D02*
X18298572Y-23675101D01*
X18298572Y-23675101D02*
X18289048Y-23665577D01*
D12*
X13488357Y-24128537D02*
X13488357Y-24004793D01*
X13364612Y-24004793D01*
X13364612Y-24128537D01*
X13488357Y-24128537D01*
D11*
X13879524Y-24158149D02*
X13765238Y-24158149D01*
X13822381Y-24158149D02*
X13822381Y-23958149D01*
X13822381Y-23958149D02*
X13803333Y-23986720D01*
X13803333Y-23986720D02*
X13784285Y-24005768D01*
X13784285Y-24005768D02*
X13765238Y-24015292D01*
X13965238Y-24139101D02*
X13974762Y-24148625D01*
X13974762Y-24148625D02*
X13965238Y-24158149D01*
X13965238Y-24158149D02*
X13955714Y-24148625D01*
X13955714Y-24148625D02*
X13965238Y-24139101D01*
X13965238Y-24139101D02*
X13965238Y-24158149D01*
X14041428Y-23958149D02*
X14174762Y-23958149D01*
X14174762Y-23958149D02*
X14089047Y-24158149D01*
X14346190Y-23958149D02*
X14250952Y-23958149D01*
X14250952Y-23958149D02*
X14241428Y-24053387D01*
X14241428Y-24053387D02*
X14250952Y-24043863D01*
X14250952Y-24043863D02*
X14270000Y-24034339D01*
X14270000Y-24034339D02*
X14317619Y-24034339D01*
X14317619Y-24034339D02*
X14336666Y-24043863D01*
X14336666Y-24043863D02*
X14346190Y-24053387D01*
X14346190Y-24053387D02*
X14355714Y-24072435D01*
X14355714Y-24072435D02*
X14355714Y-24120054D01*
X14355714Y-24120054D02*
X14346190Y-24139101D01*
X14346190Y-24139101D02*
X14336666Y-24148625D01*
X14336666Y-24148625D02*
X14317619Y-24158149D01*
X14317619Y-24158149D02*
X14270000Y-24158149D01*
X14270000Y-24158149D02*
X14250952Y-24148625D01*
X14250952Y-24148625D02*
X14241428Y-24139101D01*
X14479524Y-23958149D02*
X14498571Y-23958149D01*
X14498571Y-23958149D02*
X14517619Y-23967673D01*
X14517619Y-23967673D02*
X14527143Y-23977196D01*
X14527143Y-23977196D02*
X14536666Y-23996244D01*
X14536666Y-23996244D02*
X14546190Y-24034339D01*
X14546190Y-24034339D02*
X14546190Y-24081958D01*
X14546190Y-24081958D02*
X14536666Y-24120054D01*
X14536666Y-24120054D02*
X14527143Y-24139101D01*
X14527143Y-24139101D02*
X14517619Y-24148625D01*
X14517619Y-24148625D02*
X14498571Y-24158149D01*
X14498571Y-24158149D02*
X14479524Y-24158149D01*
X14479524Y-24158149D02*
X14460476Y-24148625D01*
X14460476Y-24148625D02*
X14450952Y-24139101D01*
X14450952Y-24139101D02*
X14441428Y-24120054D01*
X14441428Y-24120054D02*
X14431905Y-24081958D01*
X14431905Y-24081958D02*
X14431905Y-24034339D01*
X14431905Y-24034339D02*
X14441428Y-23996244D01*
X14441428Y-23996244D02*
X14450952Y-23977196D01*
X14450952Y-23977196D02*
X14460476Y-23967673D01*
X14460476Y-23967673D02*
X14479524Y-23958149D01*
X14631905Y-24158149D02*
X14631905Y-24024815D01*
X14631905Y-24043863D02*
X14641428Y-24034339D01*
X14641428Y-24034339D02*
X14660476Y-24024815D01*
X14660476Y-24024815D02*
X14689047Y-24024815D01*
X14689047Y-24024815D02*
X14708095Y-24034339D01*
X14708095Y-24034339D02*
X14717619Y-24053387D01*
X14717619Y-24053387D02*
X14717619Y-24158149D01*
X14717619Y-24053387D02*
X14727143Y-24034339D01*
X14727143Y-24034339D02*
X14746190Y-24024815D01*
X14746190Y-24024815D02*
X14774762Y-24024815D01*
X14774762Y-24024815D02*
X14793809Y-24034339D01*
X14793809Y-24034339D02*
X14803333Y-24053387D01*
X14803333Y-24053387D02*
X14803333Y-24158149D01*
X14898571Y-24158149D02*
X14898571Y-24024815D01*
X14898571Y-24043863D02*
X14908095Y-24034339D01*
X14908095Y-24034339D02*
X14927143Y-24024815D01*
X14927143Y-24024815D02*
X14955714Y-24024815D01*
X14955714Y-24024815D02*
X14974762Y-24034339D01*
X14974762Y-24034339D02*
X14984286Y-24053387D01*
X14984286Y-24053387D02*
X14984286Y-24158149D01*
X14984286Y-24053387D02*
X14993809Y-24034339D01*
X14993809Y-24034339D02*
X15012857Y-24024815D01*
X15012857Y-24024815D02*
X15041428Y-24024815D01*
X15041428Y-24024815D02*
X15060476Y-24034339D01*
X15060476Y-24034339D02*
X15070000Y-24053387D01*
X15070000Y-24053387D02*
X15070000Y-24158149D01*
X15460476Y-23948625D02*
X15289048Y-24205768D01*
X15717619Y-23958149D02*
X15736667Y-23958149D01*
X15736667Y-23958149D02*
X15755714Y-23967673D01*
X15755714Y-23967673D02*
X15765238Y-23977196D01*
X15765238Y-23977196D02*
X15774762Y-23996244D01*
X15774762Y-23996244D02*
X15784286Y-24034339D01*
X15784286Y-24034339D02*
X15784286Y-24081958D01*
X15784286Y-24081958D02*
X15774762Y-24120054D01*
X15774762Y-24120054D02*
X15765238Y-24139101D01*
X15765238Y-24139101D02*
X15755714Y-24148625D01*
X15755714Y-24148625D02*
X15736667Y-24158149D01*
X15736667Y-24158149D02*
X15717619Y-24158149D01*
X15717619Y-24158149D02*
X15698571Y-24148625D01*
X15698571Y-24148625D02*
X15689048Y-24139101D01*
X15689048Y-24139101D02*
X15679524Y-24120054D01*
X15679524Y-24120054D02*
X15670000Y-24081958D01*
X15670000Y-24081958D02*
X15670000Y-24034339D01*
X15670000Y-24034339D02*
X15679524Y-23996244D01*
X15679524Y-23996244D02*
X15689048Y-23977196D01*
X15689048Y-23977196D02*
X15698571Y-23967673D01*
X15698571Y-23967673D02*
X15717619Y-23958149D01*
X15870000Y-24139101D02*
X15879524Y-24148625D01*
X15879524Y-24148625D02*
X15870000Y-24158149D01*
X15870000Y-24158149D02*
X15860476Y-24148625D01*
X15860476Y-24148625D02*
X15870000Y-24139101D01*
X15870000Y-24139101D02*
X15870000Y-24158149D01*
X16003333Y-23958149D02*
X16022381Y-23958149D01*
X16022381Y-23958149D02*
X16041429Y-23967673D01*
X16041429Y-23967673D02*
X16050952Y-23977196D01*
X16050952Y-23977196D02*
X16060476Y-23996244D01*
X16060476Y-23996244D02*
X16070000Y-24034339D01*
X16070000Y-24034339D02*
X16070000Y-24081958D01*
X16070000Y-24081958D02*
X16060476Y-24120054D01*
X16060476Y-24120054D02*
X16050952Y-24139101D01*
X16050952Y-24139101D02*
X16041429Y-24148625D01*
X16041429Y-24148625D02*
X16022381Y-24158149D01*
X16022381Y-24158149D02*
X16003333Y-24158149D01*
X16003333Y-24158149D02*
X15984286Y-24148625D01*
X15984286Y-24148625D02*
X15974762Y-24139101D01*
X15974762Y-24139101D02*
X15965238Y-24120054D01*
X15965238Y-24120054D02*
X15955714Y-24081958D01*
X15955714Y-24081958D02*
X15955714Y-24034339D01*
X15955714Y-24034339D02*
X15965238Y-23996244D01*
X15965238Y-23996244D02*
X15974762Y-23977196D01*
X15974762Y-23977196D02*
X15984286Y-23967673D01*
X15984286Y-23967673D02*
X16003333Y-23958149D01*
X16241429Y-23958149D02*
X16203333Y-23958149D01*
X16203333Y-23958149D02*
X16184286Y-23967673D01*
X16184286Y-23967673D02*
X16174762Y-23977196D01*
X16174762Y-23977196D02*
X16155714Y-24005768D01*
X16155714Y-24005768D02*
X16146190Y-24043863D01*
X16146190Y-24043863D02*
X16146190Y-24120054D01*
X16146190Y-24120054D02*
X16155714Y-24139101D01*
X16155714Y-24139101D02*
X16165238Y-24148625D01*
X16165238Y-24148625D02*
X16184286Y-24158149D01*
X16184286Y-24158149D02*
X16222381Y-24158149D01*
X16222381Y-24158149D02*
X16241429Y-24148625D01*
X16241429Y-24148625D02*
X16250952Y-24139101D01*
X16250952Y-24139101D02*
X16260476Y-24120054D01*
X16260476Y-24120054D02*
X16260476Y-24072435D01*
X16260476Y-24072435D02*
X16250952Y-24053387D01*
X16250952Y-24053387D02*
X16241429Y-24043863D01*
X16241429Y-24043863D02*
X16222381Y-24034339D01*
X16222381Y-24034339D02*
X16184286Y-24034339D01*
X16184286Y-24034339D02*
X16165238Y-24043863D01*
X16165238Y-24043863D02*
X16155714Y-24053387D01*
X16155714Y-24053387D02*
X16146190Y-24072435D01*
X16374762Y-24043863D02*
X16355714Y-24034339D01*
X16355714Y-24034339D02*
X16346190Y-24024815D01*
X16346190Y-24024815D02*
X16336667Y-24005768D01*
X16336667Y-24005768D02*
X16336667Y-23996244D01*
X16336667Y-23996244D02*
X16346190Y-23977196D01*
X16346190Y-23977196D02*
X16355714Y-23967673D01*
X16355714Y-23967673D02*
X16374762Y-23958149D01*
X16374762Y-23958149D02*
X16412857Y-23958149D01*
X16412857Y-23958149D02*
X16431905Y-23967673D01*
X16431905Y-23967673D02*
X16441429Y-23977196D01*
X16441429Y-23977196D02*
X16450952Y-23996244D01*
X16450952Y-23996244D02*
X16450952Y-24005768D01*
X16450952Y-24005768D02*
X16441429Y-24024815D01*
X16441429Y-24024815D02*
X16431905Y-24034339D01*
X16431905Y-24034339D02*
X16412857Y-24043863D01*
X16412857Y-24043863D02*
X16374762Y-24043863D01*
X16374762Y-24043863D02*
X16355714Y-24053387D01*
X16355714Y-24053387D02*
X16346190Y-24062911D01*
X16346190Y-24062911D02*
X16336667Y-24081958D01*
X16336667Y-24081958D02*
X16336667Y-24120054D01*
X16336667Y-24120054D02*
X16346190Y-24139101D01*
X16346190Y-24139101D02*
X16355714Y-24148625D01*
X16355714Y-24148625D02*
X16374762Y-24158149D01*
X16374762Y-24158149D02*
X16412857Y-24158149D01*
X16412857Y-24158149D02*
X16431905Y-24148625D01*
X16431905Y-24148625D02*
X16441429Y-24139101D01*
X16441429Y-24139101D02*
X16450952Y-24120054D01*
X16450952Y-24120054D02*
X16450952Y-24081958D01*
X16450952Y-24081958D02*
X16441429Y-24062911D01*
X16441429Y-24062911D02*
X16431905Y-24053387D01*
X16431905Y-24053387D02*
X16412857Y-24043863D01*
X16546190Y-24158149D02*
X16584286Y-24158149D01*
X16584286Y-24158149D02*
X16603333Y-24148625D01*
X16603333Y-24148625D02*
X16612857Y-24139101D01*
X16612857Y-24139101D02*
X16631905Y-24110530D01*
X16631905Y-24110530D02*
X16641429Y-24072435D01*
X16641429Y-24072435D02*
X16641429Y-23996244D01*
X16641429Y-23996244D02*
X16631905Y-23977196D01*
X16631905Y-23977196D02*
X16622381Y-23967673D01*
X16622381Y-23967673D02*
X16603333Y-23958149D01*
X16603333Y-23958149D02*
X16565238Y-23958149D01*
X16565238Y-23958149D02*
X16546190Y-23967673D01*
X16546190Y-23967673D02*
X16536667Y-23977196D01*
X16536667Y-23977196D02*
X16527143Y-23996244D01*
X16527143Y-23996244D02*
X16527143Y-24043863D01*
X16527143Y-24043863D02*
X16536667Y-24062911D01*
X16536667Y-24062911D02*
X16546190Y-24072435D01*
X16546190Y-24072435D02*
X16565238Y-24081958D01*
X16565238Y-24081958D02*
X16603333Y-24081958D01*
X16603333Y-24081958D02*
X16622381Y-24072435D01*
X16622381Y-24072435D02*
X16631905Y-24062911D01*
X16631905Y-24062911D02*
X16641429Y-24043863D01*
X16717619Y-23958149D02*
X16717619Y-23996244D01*
X16793810Y-23958149D02*
X16793810Y-23996244D01*
X17089048Y-24234339D02*
X17079524Y-24224815D01*
X17079524Y-24224815D02*
X17060476Y-24196244D01*
X17060476Y-24196244D02*
X17050953Y-24177196D01*
X17050953Y-24177196D02*
X17041429Y-24148625D01*
X17041429Y-24148625D02*
X17031905Y-24101006D01*
X17031905Y-24101006D02*
X17031905Y-24062911D01*
X17031905Y-24062911D02*
X17041429Y-24015292D01*
X17041429Y-24015292D02*
X17050953Y-23986720D01*
X17050953Y-23986720D02*
X17060476Y-23967673D01*
X17060476Y-23967673D02*
X17079524Y-23939101D01*
X17079524Y-23939101D02*
X17089048Y-23929577D01*
X17270000Y-24158149D02*
X17155714Y-24158149D01*
X17212857Y-24158149D02*
X17212857Y-23958149D01*
X17212857Y-23958149D02*
X17193810Y-23986720D01*
X17193810Y-23986720D02*
X17174762Y-24005768D01*
X17174762Y-24005768D02*
X17155714Y-24015292D01*
X17336667Y-23958149D02*
X17470000Y-23958149D01*
X17470000Y-23958149D02*
X17384286Y-24158149D01*
X17641429Y-23958149D02*
X17546191Y-23958149D01*
X17546191Y-23958149D02*
X17536667Y-24053387D01*
X17536667Y-24053387D02*
X17546191Y-24043863D01*
X17546191Y-24043863D02*
X17565238Y-24034339D01*
X17565238Y-24034339D02*
X17612857Y-24034339D01*
X17612857Y-24034339D02*
X17631905Y-24043863D01*
X17631905Y-24043863D02*
X17641429Y-24053387D01*
X17641429Y-24053387D02*
X17650953Y-24072435D01*
X17650953Y-24072435D02*
X17650953Y-24120054D01*
X17650953Y-24120054D02*
X17641429Y-24139101D01*
X17641429Y-24139101D02*
X17631905Y-24148625D01*
X17631905Y-24148625D02*
X17612857Y-24158149D01*
X17612857Y-24158149D02*
X17565238Y-24158149D01*
X17565238Y-24158149D02*
X17546191Y-24148625D01*
X17546191Y-24148625D02*
X17536667Y-24139101D01*
X17889048Y-24158149D02*
X17889048Y-23958149D01*
X17974762Y-24158149D02*
X17974762Y-24053387D01*
X17974762Y-24053387D02*
X17965238Y-24034339D01*
X17965238Y-24034339D02*
X17946191Y-24024815D01*
X17946191Y-24024815D02*
X17917619Y-24024815D01*
X17917619Y-24024815D02*
X17898572Y-24034339D01*
X17898572Y-24034339D02*
X17889048Y-24043863D01*
X18098572Y-24158149D02*
X18079524Y-24148625D01*
X18079524Y-24148625D02*
X18070000Y-24139101D01*
X18070000Y-24139101D02*
X18060476Y-24120054D01*
X18060476Y-24120054D02*
X18060476Y-24062911D01*
X18060476Y-24062911D02*
X18070000Y-24043863D01*
X18070000Y-24043863D02*
X18079524Y-24034339D01*
X18079524Y-24034339D02*
X18098572Y-24024815D01*
X18098572Y-24024815D02*
X18127143Y-24024815D01*
X18127143Y-24024815D02*
X18146191Y-24034339D01*
X18146191Y-24034339D02*
X18155715Y-24043863D01*
X18155715Y-24043863D02*
X18165238Y-24062911D01*
X18165238Y-24062911D02*
X18165238Y-24120054D01*
X18165238Y-24120054D02*
X18155715Y-24139101D01*
X18155715Y-24139101D02*
X18146191Y-24148625D01*
X18146191Y-24148625D02*
X18127143Y-24158149D01*
X18127143Y-24158149D02*
X18098572Y-24158149D01*
X18279524Y-24158149D02*
X18260476Y-24148625D01*
X18260476Y-24148625D02*
X18250953Y-24129577D01*
X18250953Y-24129577D02*
X18250953Y-23958149D01*
X18431905Y-24148625D02*
X18412857Y-24158149D01*
X18412857Y-24158149D02*
X18374762Y-24158149D01*
X18374762Y-24158149D02*
X18355715Y-24148625D01*
X18355715Y-24148625D02*
X18346191Y-24129577D01*
X18346191Y-24129577D02*
X18346191Y-24053387D01*
X18346191Y-24053387D02*
X18355715Y-24034339D01*
X18355715Y-24034339D02*
X18374762Y-24024815D01*
X18374762Y-24024815D02*
X18412857Y-24024815D01*
X18412857Y-24024815D02*
X18431905Y-24034339D01*
X18431905Y-24034339D02*
X18441429Y-24053387D01*
X18441429Y-24053387D02*
X18441429Y-24072435D01*
X18441429Y-24072435D02*
X18346191Y-24091482D01*
X18517619Y-24148625D02*
X18536667Y-24158149D01*
X18536667Y-24158149D02*
X18574762Y-24158149D01*
X18574762Y-24158149D02*
X18593810Y-24148625D01*
X18593810Y-24148625D02*
X18603334Y-24129577D01*
X18603334Y-24129577D02*
X18603334Y-24120054D01*
X18603334Y-24120054D02*
X18593810Y-24101006D01*
X18593810Y-24101006D02*
X18574762Y-24091482D01*
X18574762Y-24091482D02*
X18546191Y-24091482D01*
X18546191Y-24091482D02*
X18527143Y-24081958D01*
X18527143Y-24081958D02*
X18517619Y-24062911D01*
X18517619Y-24062911D02*
X18517619Y-24053387D01*
X18517619Y-24053387D02*
X18527143Y-24034339D01*
X18527143Y-24034339D02*
X18546191Y-24024815D01*
X18546191Y-24024815D02*
X18574762Y-24024815D01*
X18574762Y-24024815D02*
X18593810Y-24034339D01*
X18670000Y-24234339D02*
X18679524Y-24224815D01*
X18679524Y-24224815D02*
X18698572Y-24196244D01*
X18698572Y-24196244D02*
X18708096Y-24177196D01*
X18708096Y-24177196D02*
X18717619Y-24148625D01*
X18717619Y-24148625D02*
X18727143Y-24101006D01*
X18727143Y-24101006D02*
X18727143Y-24062911D01*
X18727143Y-24062911D02*
X18717619Y-24015292D01*
X18717619Y-24015292D02*
X18708096Y-23986720D01*
X18708096Y-23986720D02*
X18698572Y-23967673D01*
X18698572Y-23967673D02*
X18679524Y-23939101D01*
X18679524Y-23939101D02*
X18670000Y-23929577D01*
M02*
