G04 #@! TF.GenerationSoftware,KiCad,Pcbnew,8.0.2*
G04 #@! TF.CreationDate,2024-05-16T19:18:52+09:30*
G04 #@! TF.ProjectId,Motherboard 2024,4d6f7468-6572-4626-9f61-726420323032,rev?*
G04 #@! TF.SameCoordinates,Original*
G04 #@! TF.FileFunction,Legend,Bot*
G04 #@! TF.FilePolarity,Positive*
%FSLAX46Y46*%
G04 Gerber Fmt 4.6, Leading zero omitted, Abs format (unit mm)*
G04 Created by KiCad (PCBNEW 8.0.2) date 2024-05-16 19:18:52*
%MOMM*%
%LPD*%
G01*
G04 APERTURE LIST*
%ADD10C,0.150000*%
%ADD11C,0.120000*%
%ADD12C,2.410000*%
%ADD13C,3.200000*%
%ADD14R,1.700000X1.700000*%
%ADD15O,1.700000X1.700000*%
%ADD16C,2.000000*%
%ADD17C,2.500000*%
%ADD18C,1.250000*%
%ADD19C,0.800000*%
G04 APERTURE END LIST*
D10*
X269289885Y-51168704D02*
X268813695Y-51168704D01*
X269385123Y-51454419D02*
X269051790Y-50454419D01*
X269051790Y-50454419D02*
X268718457Y-51454419D01*
X267861314Y-51454419D02*
X268432742Y-51454419D01*
X268147028Y-51454419D02*
X268147028Y-50454419D01*
X268147028Y-50454419D02*
X268242266Y-50597276D01*
X268242266Y-50597276D02*
X268337504Y-50692514D01*
X268337504Y-50692514D02*
X268432742Y-50740133D01*
X222853955Y-152587352D02*
X222853955Y-153063542D01*
X223139670Y-152492114D02*
X222139670Y-152825447D01*
X222139670Y-152825447D02*
X223139670Y-153158780D01*
X222473003Y-153920685D02*
X223139670Y-153920685D01*
X222092051Y-153682590D02*
X222806336Y-153444495D01*
X222806336Y-153444495D02*
X222806336Y-154063542D01*
X136353955Y-152587352D02*
X136353955Y-153063542D01*
X136639670Y-152492114D02*
X135639670Y-152825447D01*
X135639670Y-152825447D02*
X136639670Y-153158780D01*
X136068241Y-153634971D02*
X136020622Y-153539733D01*
X136020622Y-153539733D02*
X135973003Y-153492114D01*
X135973003Y-153492114D02*
X135877765Y-153444495D01*
X135877765Y-153444495D02*
X135830146Y-153444495D01*
X135830146Y-153444495D02*
X135734908Y-153492114D01*
X135734908Y-153492114D02*
X135687289Y-153539733D01*
X135687289Y-153539733D02*
X135639670Y-153634971D01*
X135639670Y-153634971D02*
X135639670Y-153825447D01*
X135639670Y-153825447D02*
X135687289Y-153920685D01*
X135687289Y-153920685D02*
X135734908Y-153968304D01*
X135734908Y-153968304D02*
X135830146Y-154015923D01*
X135830146Y-154015923D02*
X135877765Y-154015923D01*
X135877765Y-154015923D02*
X135973003Y-153968304D01*
X135973003Y-153968304D02*
X136020622Y-153920685D01*
X136020622Y-153920685D02*
X136068241Y-153825447D01*
X136068241Y-153825447D02*
X136068241Y-153634971D01*
X136068241Y-153634971D02*
X136115860Y-153539733D01*
X136115860Y-153539733D02*
X136163479Y-153492114D01*
X136163479Y-153492114D02*
X136258717Y-153444495D01*
X136258717Y-153444495D02*
X136449193Y-153444495D01*
X136449193Y-153444495D02*
X136544431Y-153492114D01*
X136544431Y-153492114D02*
X136592051Y-153539733D01*
X136592051Y-153539733D02*
X136639670Y-153634971D01*
X136639670Y-153634971D02*
X136639670Y-153825447D01*
X136639670Y-153825447D02*
X136592051Y-153920685D01*
X136592051Y-153920685D02*
X136544431Y-153968304D01*
X136544431Y-153968304D02*
X136449193Y-154015923D01*
X136449193Y-154015923D02*
X136258717Y-154015923D01*
X136258717Y-154015923D02*
X136163479Y-153968304D01*
X136163479Y-153968304D02*
X136115860Y-153920685D01*
X136115860Y-153920685D02*
X136068241Y-153825447D01*
X264363848Y-152587249D02*
X264363848Y-153063439D01*
X264649563Y-152492011D02*
X263649563Y-152825344D01*
X263649563Y-152825344D02*
X264649563Y-153158677D01*
X263649563Y-153920582D02*
X263649563Y-153730106D01*
X263649563Y-153730106D02*
X263697182Y-153634868D01*
X263697182Y-153634868D02*
X263744801Y-153587249D01*
X263744801Y-153587249D02*
X263887658Y-153492011D01*
X263887658Y-153492011D02*
X264078134Y-153444392D01*
X264078134Y-153444392D02*
X264459086Y-153444392D01*
X264459086Y-153444392D02*
X264554324Y-153492011D01*
X264554324Y-153492011D02*
X264601944Y-153539630D01*
X264601944Y-153539630D02*
X264649563Y-153634868D01*
X264649563Y-153634868D02*
X264649563Y-153825344D01*
X264649563Y-153825344D02*
X264601944Y-153920582D01*
X264601944Y-153920582D02*
X264554324Y-153968201D01*
X264554324Y-153968201D02*
X264459086Y-154015820D01*
X264459086Y-154015820D02*
X264220991Y-154015820D01*
X264220991Y-154015820D02*
X264125753Y-153968201D01*
X264125753Y-153968201D02*
X264078134Y-153920582D01*
X264078134Y-153920582D02*
X264030515Y-153825344D01*
X264030515Y-153825344D02*
X264030515Y-153634868D01*
X264030515Y-153634868D02*
X264078134Y-153539630D01*
X264078134Y-153539630D02*
X264125753Y-153492011D01*
X264125753Y-153492011D02*
X264220991Y-153444392D01*
X179353955Y-152587352D02*
X179353955Y-153063542D01*
X179639670Y-152492114D02*
X178639670Y-152825447D01*
X178639670Y-152825447D02*
X179639670Y-153158780D01*
X178639670Y-153396876D02*
X178639670Y-154063542D01*
X178639670Y-154063542D02*
X179639670Y-153634971D01*
X195856285Y-50203504D02*
X195380095Y-50203504D01*
X195951523Y-50489219D02*
X195618190Y-49489219D01*
X195618190Y-49489219D02*
X195284857Y-50489219D01*
X195046761Y-49489219D02*
X194427714Y-49489219D01*
X194427714Y-49489219D02*
X194761047Y-49870171D01*
X194761047Y-49870171D02*
X194618190Y-49870171D01*
X194618190Y-49870171D02*
X194522952Y-49917790D01*
X194522952Y-49917790D02*
X194475333Y-49965409D01*
X194475333Y-49965409D02*
X194427714Y-50060647D01*
X194427714Y-50060647D02*
X194427714Y-50298742D01*
X194427714Y-50298742D02*
X194475333Y-50393980D01*
X194475333Y-50393980D02*
X194522952Y-50441600D01*
X194522952Y-50441600D02*
X194618190Y-50489219D01*
X194618190Y-50489219D02*
X194903904Y-50489219D01*
X194903904Y-50489219D02*
X194999142Y-50441600D01*
X194999142Y-50441600D02*
X195046761Y-50393980D01*
X306363848Y-152587249D02*
X306363848Y-153063439D01*
X306649563Y-152492011D02*
X305649563Y-152825344D01*
X305649563Y-152825344D02*
X306649563Y-153158677D01*
X305744801Y-153444392D02*
X305697182Y-153492011D01*
X305697182Y-153492011D02*
X305649563Y-153587249D01*
X305649563Y-153587249D02*
X305649563Y-153825344D01*
X305649563Y-153825344D02*
X305697182Y-153920582D01*
X305697182Y-153920582D02*
X305744801Y-153968201D01*
X305744801Y-153968201D02*
X305840039Y-154015820D01*
X305840039Y-154015820D02*
X305935277Y-154015820D01*
X305935277Y-154015820D02*
X306078134Y-153968201D01*
X306078134Y-153968201D02*
X306649563Y-153396773D01*
X306649563Y-153396773D02*
X306649563Y-154015820D01*
X211302685Y-96431504D02*
X210826495Y-96431504D01*
X211397923Y-96717219D02*
X211064590Y-95717219D01*
X211064590Y-95717219D02*
X210731257Y-96717219D01*
X209921733Y-95717219D02*
X210397923Y-95717219D01*
X210397923Y-95717219D02*
X210445542Y-96193409D01*
X210445542Y-96193409D02*
X210397923Y-96145790D01*
X210397923Y-96145790D02*
X210302685Y-96098171D01*
X210302685Y-96098171D02*
X210064590Y-96098171D01*
X210064590Y-96098171D02*
X209969352Y-96145790D01*
X209969352Y-96145790D02*
X209921733Y-96193409D01*
X209921733Y-96193409D02*
X209874114Y-96288647D01*
X209874114Y-96288647D02*
X209874114Y-96526742D01*
X209874114Y-96526742D02*
X209921733Y-96621980D01*
X209921733Y-96621980D02*
X209969352Y-96669600D01*
X209969352Y-96669600D02*
X210064590Y-96717219D01*
X210064590Y-96717219D02*
X210302685Y-96717219D01*
X210302685Y-96717219D02*
X210397923Y-96669600D01*
X210397923Y-96669600D02*
X210445542Y-96621980D01*
D11*
X207575600Y-51999600D02*
X207575600Y-85999600D01*
X207575600Y-85999600D02*
X269575600Y-85999600D01*
X269575600Y-51999600D02*
X207575600Y-51999600D01*
X269575600Y-85999600D02*
X269575600Y-51999600D01*
X223684851Y-152301638D02*
X223684851Y-214301638D01*
X223684851Y-214301638D02*
X257684851Y-214301638D01*
X257684851Y-152301638D02*
X223684851Y-152301638D01*
X257684851Y-214301638D02*
X257684851Y-152301638D01*
X137184851Y-152301638D02*
X137184851Y-214301638D01*
X137184851Y-214301638D02*
X171184851Y-214301638D01*
X171184851Y-152301638D02*
X137184851Y-152301638D01*
X171184851Y-214301638D02*
X171184851Y-152301638D01*
X265194744Y-152301535D02*
X265194744Y-214301535D01*
X265194744Y-214301535D02*
X299194744Y-214301535D01*
X299194744Y-152301535D02*
X265194744Y-152301535D01*
X299194744Y-214301535D02*
X299194744Y-152301535D01*
X180184851Y-152301638D02*
X180184851Y-214301638D01*
X180184851Y-214301638D02*
X214184851Y-214301638D01*
X214184851Y-152301638D02*
X180184851Y-152301638D01*
X214184851Y-214301638D02*
X214184851Y-152301638D01*
X146142000Y-51034400D02*
X146142000Y-85034400D01*
X146142000Y-85034400D02*
X196142000Y-85034400D01*
X196142000Y-51034400D02*
X146142000Y-51034400D01*
X196142000Y-85034400D02*
X196142000Y-51034400D01*
X307194744Y-152301535D02*
X307194744Y-214301535D01*
X307194744Y-214301535D02*
X341194744Y-214301535D01*
X341194744Y-152301535D02*
X307194744Y-152301535D01*
X341194744Y-214301535D02*
X341194744Y-152301535D01*
X149588400Y-97262400D02*
X149588400Y-131262400D01*
X149588400Y-131262400D02*
X211588400Y-131262400D01*
X211588400Y-97262400D02*
X149588400Y-97262400D01*
X211588400Y-131262400D02*
X211588400Y-97262400D01*
%LPC*%
D12*
X278207200Y-72014600D03*
X270907200Y-72014600D03*
X303249600Y-194380000D03*
X303249600Y-175080000D03*
X296207200Y-72014600D03*
X288907200Y-72014600D03*
X296207200Y-120014600D03*
X288907200Y-120014600D03*
X278207200Y-60014600D03*
X270907200Y-60014600D03*
X205427600Y-75215000D03*
X198127600Y-75215000D03*
D13*
X141189848Y-43306639D03*
D12*
X342849200Y-104140000D03*
X335549200Y-104140000D03*
X333910000Y-71740800D03*
X326610000Y-71740800D03*
X333910000Y-59740800D03*
X326610000Y-59740800D03*
X296207200Y-108014600D03*
X288907200Y-108014600D03*
X296207200Y-96014600D03*
X288907200Y-96014600D03*
D14*
X291079000Y-42164000D03*
D15*
X293619000Y-42164000D03*
D12*
X311708800Y-112031150D03*
X311708800Y-95731150D03*
D13*
X141184851Y-220301638D03*
D12*
X341419200Y-144506200D03*
X334119200Y-144506200D03*
D13*
X241184851Y-220301638D03*
D12*
X296207200Y-60014600D03*
X288907200Y-60014600D03*
X341680800Y-131267200D03*
X334380800Y-131267200D03*
X343173200Y-89983200D03*
X335873200Y-89983200D03*
D14*
X313944000Y-49276000D03*
D15*
X311404000Y-49276000D03*
D12*
X315910000Y-59740800D03*
X308610000Y-59740800D03*
X303554400Y-168014800D03*
X303554400Y-145714800D03*
D14*
X311399000Y-42418000D03*
D15*
X313939000Y-42418000D03*
D12*
X205604000Y-60374400D03*
X198304000Y-60374400D03*
D13*
X241184851Y-117301638D03*
D12*
X216514000Y-45618400D03*
X209214000Y-45618400D03*
X315910000Y-83740800D03*
X308610000Y-83740800D03*
X296207200Y-132014600D03*
X288907200Y-132014600D03*
D13*
X241189848Y-43306639D03*
D12*
X315910000Y-71740800D03*
X308610000Y-71740800D03*
X296207200Y-84014600D03*
X288907200Y-84014600D03*
D13*
X141184851Y-117301638D03*
D12*
X195514000Y-45618400D03*
X188214000Y-45618400D03*
D13*
X341189908Y-43306581D03*
D14*
X293578200Y-48260000D03*
D15*
X291038200Y-48260000D03*
D13*
X341194744Y-220301535D03*
X341194744Y-117301535D03*
D16*
X263775600Y-76299600D03*
X262275600Y-58199600D03*
X214875600Y-58199600D03*
X213375600Y-76299600D03*
D17*
X252575600Y-64999600D03*
X248575600Y-64999600D03*
X244575600Y-64999600D03*
X240575600Y-64999600D03*
X236575600Y-64999600D03*
X232575600Y-64999600D03*
X228575600Y-64999600D03*
X224575600Y-64999600D03*
X250575600Y-68999600D03*
X246575600Y-68999600D03*
X242575600Y-68999600D03*
X238575600Y-68999600D03*
X234575600Y-68999600D03*
X230575600Y-68999600D03*
X226575600Y-68999600D03*
X252575600Y-72999600D03*
X248575600Y-72999600D03*
X244575600Y-72999600D03*
X240575600Y-72999600D03*
X236575600Y-72999600D03*
X232575600Y-72999600D03*
X228575600Y-72999600D03*
X224575600Y-72999600D03*
D16*
X247984851Y-158101638D03*
X229884851Y-159601638D03*
X229884851Y-207001638D03*
X247984851Y-208501638D03*
D17*
X236684851Y-169301638D03*
X236684851Y-173301638D03*
X236684851Y-177301638D03*
X236684851Y-181301638D03*
X236684851Y-185301638D03*
X236684851Y-189301638D03*
X236684851Y-193301638D03*
X236684851Y-197301638D03*
X240684851Y-171301638D03*
X240684851Y-175301638D03*
X240684851Y-179301638D03*
X240684851Y-183301638D03*
X240684851Y-187301638D03*
X240684851Y-191301638D03*
X240684851Y-195301638D03*
X244684851Y-169301638D03*
X244684851Y-173301638D03*
X244684851Y-177301638D03*
X244684851Y-181301638D03*
X244684851Y-185301638D03*
X244684851Y-189301638D03*
X244684851Y-193301638D03*
X244684851Y-197301638D03*
D16*
X161484851Y-158101638D03*
X143384851Y-159601638D03*
X143384851Y-207001638D03*
X161484851Y-208501638D03*
D17*
X150184851Y-169301638D03*
X150184851Y-173301638D03*
X150184851Y-177301638D03*
X150184851Y-181301638D03*
X150184851Y-185301638D03*
X150184851Y-189301638D03*
X150184851Y-193301638D03*
X150184851Y-197301638D03*
X154184851Y-171301638D03*
X154184851Y-175301638D03*
X154184851Y-179301638D03*
X154184851Y-183301638D03*
X154184851Y-187301638D03*
X154184851Y-191301638D03*
X154184851Y-195301638D03*
X158184851Y-169301638D03*
X158184851Y-173301638D03*
X158184851Y-177301638D03*
X158184851Y-181301638D03*
X158184851Y-185301638D03*
X158184851Y-189301638D03*
X158184851Y-193301638D03*
X158184851Y-197301638D03*
D16*
X289494744Y-158101535D03*
X271394744Y-159601535D03*
X271394744Y-207001535D03*
X289494744Y-208501535D03*
D17*
X278194744Y-169301535D03*
X278194744Y-173301535D03*
X278194744Y-177301535D03*
X278194744Y-181301535D03*
X278194744Y-185301535D03*
X278194744Y-189301535D03*
X278194744Y-193301535D03*
X278194744Y-197301535D03*
X282194744Y-171301535D03*
X282194744Y-175301535D03*
X282194744Y-179301535D03*
X282194744Y-183301535D03*
X282194744Y-187301535D03*
X282194744Y-191301535D03*
X282194744Y-195301535D03*
X286194744Y-169301535D03*
X286194744Y-173301535D03*
X286194744Y-177301535D03*
X286194744Y-181301535D03*
X286194744Y-185301535D03*
X286194744Y-189301535D03*
X286194744Y-193301535D03*
X286194744Y-197301535D03*
D16*
X204484851Y-158101638D03*
X186384851Y-159601638D03*
X186384851Y-207001638D03*
X204484851Y-208501638D03*
D17*
X193184851Y-169301638D03*
X193184851Y-173301638D03*
X193184851Y-177301638D03*
X193184851Y-181301638D03*
X193184851Y-185301638D03*
X193184851Y-189301638D03*
X193184851Y-193301638D03*
X193184851Y-197301638D03*
X197184851Y-171301638D03*
X197184851Y-175301638D03*
X197184851Y-179301638D03*
X197184851Y-183301638D03*
X197184851Y-187301638D03*
X197184851Y-191301638D03*
X197184851Y-195301638D03*
X201184851Y-169301638D03*
X201184851Y-173301638D03*
X201184851Y-177301638D03*
X201184851Y-181301638D03*
X201184851Y-185301638D03*
X201184851Y-189301638D03*
X201184851Y-193301638D03*
X201184851Y-197301638D03*
D16*
X190342000Y-75334400D03*
X188842000Y-57234400D03*
X153442000Y-57234400D03*
X151942000Y-75334400D03*
D17*
X179142000Y-64034400D03*
X175142000Y-64034400D03*
X171142000Y-64034400D03*
X167142000Y-64034400D03*
X163142000Y-64034400D03*
X177142000Y-68034400D03*
X173142000Y-68034400D03*
X169142000Y-68034400D03*
X165142000Y-68034400D03*
X179142000Y-72034400D03*
X175142000Y-72034400D03*
X171142000Y-72034400D03*
X167142000Y-72034400D03*
X163142000Y-72034400D03*
D16*
X331494744Y-158101535D03*
X313394744Y-159601535D03*
X313394744Y-207001535D03*
X331494744Y-208501535D03*
D17*
X320194744Y-169301535D03*
X320194744Y-173301535D03*
X320194744Y-177301535D03*
X320194744Y-181301535D03*
X320194744Y-185301535D03*
X320194744Y-189301535D03*
X320194744Y-193301535D03*
X320194744Y-197301535D03*
X324194744Y-171301535D03*
X324194744Y-175301535D03*
X324194744Y-179301535D03*
X324194744Y-183301535D03*
X324194744Y-187301535D03*
X324194744Y-191301535D03*
X324194744Y-195301535D03*
X328194744Y-169301535D03*
X328194744Y-173301535D03*
X328194744Y-177301535D03*
X328194744Y-181301535D03*
X328194744Y-185301535D03*
X328194744Y-189301535D03*
X328194744Y-193301535D03*
X328194744Y-197301535D03*
D16*
X205788400Y-121562400D03*
X204288400Y-103462400D03*
X156888400Y-103462400D03*
X155388400Y-121562400D03*
D17*
X194588400Y-110262400D03*
X190588400Y-110262400D03*
X186588400Y-110262400D03*
X182588400Y-110262400D03*
X178588400Y-110262400D03*
X174588400Y-110262400D03*
X170588400Y-110262400D03*
X166588400Y-110262400D03*
X192588400Y-114262400D03*
X188588400Y-114262400D03*
X184588400Y-114262400D03*
X180588400Y-114262400D03*
X176588400Y-114262400D03*
X172588400Y-114262400D03*
X168588400Y-114262400D03*
X194588400Y-118262400D03*
X190588400Y-118262400D03*
X186588400Y-118262400D03*
X182588400Y-118262400D03*
X178588400Y-118262400D03*
X174588400Y-118262400D03*
X170588400Y-118262400D03*
X166588400Y-118262400D03*
D18*
X199237600Y-46685200D03*
X187858400Y-50038000D03*
X191668400Y-50088800D03*
D19*
X305206400Y-64008000D03*
X303834800Y-62749700D03*
X302666400Y-61620400D03*
X268630400Y-189484000D03*
X268376400Y-204368400D03*
X189433200Y-204622400D03*
X220776800Y-97129600D03*
X267817600Y-97981500D03*
X189252900Y-189738000D03*
X218490800Y-80501500D03*
X245821200Y-79908400D03*
X276402800Y-203098400D03*
X274777200Y-97282000D03*
X244043200Y-97180400D03*
X195326000Y-203922900D03*
X233629200Y-79044800D03*
X151942800Y-79502000D03*
X320294000Y-134772400D03*
X150114000Y-128355100D03*
D18*
X314960000Y-152450800D03*
X152349200Y-147878800D03*
X315112400Y-150469600D03*
X317449200Y-152755600D03*
X152400000Y-149504400D03*
X317550800Y-150469600D03*
X316992000Y-177495200D03*
X317093600Y-175209200D03*
X314502800Y-177190400D03*
X154838400Y-149758400D03*
X314655200Y-175209200D03*
X154787600Y-147878800D03*
D19*
X312572400Y-184962800D03*
X147335351Y-153558190D03*
X311505600Y-155854400D03*
X198526400Y-131216400D03*
X310184800Y-135432800D03*
X312216800Y-188874400D03*
X293014400Y-136314700D03*
X293370000Y-192176400D03*
X170383200Y-129354600D03*
X293065200Y-197053200D03*
X292014897Y-136714700D03*
X172923200Y-129754600D03*
X287907088Y-138314700D03*
X290670500Y-178054000D03*
X175615600Y-130154600D03*
X322224400Y-179070000D03*
X291070500Y-179527200D03*
X177800000Y-130154600D03*
X288834433Y-137914700D03*
X289833681Y-137702288D03*
X291470500Y-183438800D03*
X180187600Y-130154600D03*
X291870500Y-190500000D03*
X290728400Y-137114700D03*
X183337200Y-130154600D03*
X292181852Y-197520855D03*
X292049200Y-156634700D03*
X188173596Y-155195504D03*
X321194244Y-167081200D03*
X319452377Y-133315700D03*
X191617600Y-124956600D03*
X193751200Y-132155100D03*
X329641200Y-135686800D03*
X145694400Y-54491900D03*
X166878000Y-54914800D03*
X256399300Y-182829200D03*
X201269600Y-129692400D03*
X256286000Y-130860800D03*
X219862400Y-62839600D03*
X296722800Y-162814000D03*
X236931200Y-163220400D03*
X301091600Y-148082000D03*
X312775600Y-147969300D03*
X235153200Y-147777200D03*
X300888400Y-182880000D03*
X322275200Y-160477200D03*
X301694600Y-162763200D03*
X203860400Y-128755100D03*
X244684851Y-163982400D03*
X294069500Y-163880800D03*
X244602000Y-128473200D03*
X300685200Y-180451035D03*
X294069500Y-180451035D03*
X190957200Y-98755200D03*
X221792800Y-153162500D03*
X232460800Y-153127200D03*
X232105200Y-98083100D03*
X245384851Y-153263600D03*
X245384851Y-130048000D03*
X222148400Y-129032000D03*
X247534851Y-178451638D03*
X219448186Y-63839600D03*
X219884851Y-110286800D03*
X343052400Y-138887200D03*
X334326500Y-139547600D03*
X191871600Y-147218400D03*
X330444244Y-146570300D03*
X197205600Y-144068800D03*
X176631600Y-145471300D03*
X174244000Y-145871300D03*
X192278000Y-144119600D03*
X194665600Y-144322800D03*
X171704000Y-146151600D03*
X169078900Y-146050000D03*
X199745600Y-144932400D03*
X166471600Y-146913600D03*
X204978000Y-145377700D03*
X182880000Y-123956100D03*
X188089708Y-123963700D03*
X307898800Y-210058000D03*
X184861200Y-211041300D03*
X295503600Y-104343200D03*
X294069500Y-159766000D03*
X314096400Y-104140000D03*
X294057200Y-123240800D03*
X305580100Y-129133600D03*
X295402000Y-68326000D03*
X305511200Y-159969200D03*
X294469500Y-175463200D03*
X295656000Y-128778000D03*
X301244000Y-160020000D03*
X277876000Y-68580000D03*
X301447200Y-158242000D03*
X292303200Y-105206800D03*
X288087335Y-160679865D03*
X274320000Y-67919600D03*
X294069500Y-158496000D03*
X289001200Y-67880500D03*
X314252285Y-105127272D03*
X291057200Y-123309433D03*
X307136800Y-111607600D03*
X305663600Y-123709433D03*
X314096400Y-109931200D03*
X309321200Y-111607600D03*
X315061600Y-56286400D03*
X321005200Y-55981600D03*
X227126800Y-48158400D03*
X330504800Y-56032400D03*
X319379600Y-45770800D03*
X310760000Y-77216000D03*
X327609200Y-54660800D03*
X307695600Y-124104400D03*
X311861200Y-54406800D03*
X275792700Y-137566400D03*
X165658800Y-129794000D03*
X231140000Y-125905300D03*
X332943200Y-125108933D03*
X335635600Y-125109433D03*
X259304522Y-126108933D03*
X258775200Y-127558800D03*
X141630400Y-127355600D03*
X225653600Y-127609600D03*
X259029200Y-180302035D03*
X346151200Y-126441200D03*
X337362800Y-143459200D03*
X275793200Y-180302035D03*
X325628000Y-141224000D03*
X190652400Y-182118000D03*
X334822800Y-86563200D03*
X269025100Y-87122000D03*
X269025100Y-186957378D03*
X205300334Y-201816164D03*
X284429200Y-201654500D03*
X289345100Y-201472800D03*
X204879817Y-202722900D03*
X203657200Y-203122900D03*
X288290000Y-202742800D03*
X285191200Y-203454000D03*
X201371200Y-203522900D03*
X183286400Y-152247600D03*
X191008000Y-152654500D03*
X189839600Y-128355100D03*
X213817200Y-128422400D03*
X136656600Y-168910000D03*
X170552100Y-52492900D03*
X138176000Y-52492900D03*
X148793200Y-152654000D03*
X170078400Y-152247600D03*
X138176000Y-53492400D03*
X178968400Y-53797200D03*
X137656100Y-176923969D03*
X222808800Y-126356100D03*
X140974093Y-126597693D03*
X140411200Y-125476000D03*
X187655200Y-125356600D03*
X140575517Y-124356600D03*
X209550000Y-125356600D03*
X210820000Y-153162000D03*
X154533600Y-153653500D03*
X282894244Y-157035200D03*
X283819600Y-161814500D03*
X294640000Y-161696400D03*
X174294800Y-155053500D03*
X163830000Y-211785200D03*
X154889200Y-137210800D03*
X163576000Y-136906000D03*
X298094400Y-212140800D03*
X305155600Y-120853200D03*
X162842120Y-211937182D03*
X312775600Y-120396000D03*
X299669200Y-212648800D03*
X148183600Y-137363200D03*
X163130500Y-137869038D03*
X296381371Y-211041300D03*
X216001600Y-211023200D03*
X331876400Y-147015200D03*
X204266800Y-147523200D03*
D18*
X201320400Y-90881200D03*
X199034400Y-90881200D03*
X158648400Y-93370400D03*
X160985200Y-91084400D03*
X160934400Y-93421200D03*
X198983600Y-93167200D03*
X201269600Y-93218000D03*
X158699200Y-91084400D03*
D19*
X319481200Y-211632800D03*
X297359962Y-211441300D03*
X152704800Y-136753600D03*
X164536755Y-211078445D03*
X163749699Y-135921706D03*
X281889200Y-134377900D03*
X206145397Y-132383797D03*
X190335351Y-154274100D03*
X257798300Y-181000400D03*
X223266000Y-154127200D03*
X257798300Y-154635200D03*
X257048000Y-152552400D03*
X214122000Y-153162500D03*
X257098800Y-196951600D03*
%LPD*%
M02*
